<!-- Generator: Adobe Illustrator 21.0.0, SVG Export Plug-In  -->
<svg version="1.1"
	 xmlns="http://www.w3.org/2000/svg" xmlns:xlink="http://www.w3.org/1999/xlink" xmlns:a="http://ns.adobe.com/AdobeSVGViewerExtensions/3.0/"
	 x="0px" y="0px" width="23.8px" height="23.8px" viewBox="0 0 23.8 23.8"
	 style="overflow:scroll;enable-background:new 0 0 23.8 23.8;" xml:space="preserve">
<style type="text/css">
	.st0{fill-rule:evenodd;clip-rule:evenodd;fill:#FFFFFF;}
</style>
<defs>
</defs>
<g>
	<path class="st0" d="M4.1,15.4c0-1,0.6-2.2,3.1-2.3c2.5-0.2,5.9,1.8,5.9,1.8s-2.5,3-5.5,3C4.7,17.9,4.1,16.4,4.1,15.4L4.1,15.4z
		 M16.3,13.9c0,0,0.5-0.8,1.1-2.3C17.9,10,18,9.1,18,9.1l-4.5,0V7.5l5.5,0V6.4h-5.5V4h-2.7v2.5H5.7v1.1l5.1,0v1.6H6.7V10h8.4
		c0,0-0.1,0.7-0.4,1.6c-0.3,0.9-0.7,1.6-0.7,1.6s-3.9-1.4-6-1.4c-2.1,0-4.6,0.8-4.9,3.2c-0.2,2.4,1.2,3.7,3.2,4.2
		c2,0.5,3.9,0,5.5-0.8c1.6-0.8,3.2-2.6,3.2-2.6l6.5,3.1c-2.2,3-5.7,4.9-9.6,4.9C5.3,23.8,0,18.5,0,11.9S5.3,0,11.9,0
		s11.9,5.3,11.9,11.9c0,1.5-0.3,2.9-0.8,4.2L16.3,13.9L16.3,13.9z"/>
</g>
</svg>
