<!-- Generator: Adobe Illustrator 21.0.2, SVG Export Plug-In  -->
<svg version="1.1"
	 xmlns="http://www.w3.org/2000/svg" xmlns:xlink="http://www.w3.org/1999/xlink" xmlns:a="http://ns.adobe.com/AdobeSVGViewerExtensions/3.0/"
	 x="0px" y="0px" width="46.9px" height="54px" viewBox="0 0 46.9 54" style="overflow:scroll;enable-background:new 0 0 46.9 54;"
	 xml:space="preserve">
<style type="text/css">
	.st0{fill:#9E9E9E;}
</style>
<defs>
</defs>
<g>
	<g>
		<path class="st0" d="M15.8,4.5c0-1.5,0-3,0-4.5c3,0,5.9,0,9,0c0,1.5,0,2.9,0,4.5c0.4,0,0.6,0,0.9,0c4.1,0,8.2,0,12.3,0
			c1.6,0,2.5,0.9,2.6,2.5c0,7.7,0,15.4,0,23.1c0,0.1,0,0.3,0,0.4c-1.5,0-2.9,0-4.5,0c0-0.2,0-0.5,0-0.8c0-5.9,0-11.9,0-17.8
			C36,9.8,35.3,9,33.2,9c-0.5,0-1,0-1.6,0c0,0.8,0,1.5,0,2.2c-7.5,0-15,0-22.5,0C9,10.5,9,9.8,9,9c-1,0-1.9-0.1-2.8,0
			c-1,0.1-1.6,1-1.7,2c0,0.2,0,0.5,0,0.7c0,11.7,0,23.3,0,35c0,1.9,0.8,2.7,2.7,2.7c5.5,0,10.9,0,16.4,0c0.6,0,0.8,0.2,1,0.7
			c0.6,1.3,1.2,2.5,1.9,3.8c-0.1,0-0.3,0-0.5,0c-7.8,0-15.7,0-23.5,0C0.9,54,0,53.1,0,51.5C0,36.6,0,21.8,0,7c0-1.6,0.9-2.5,2.5-2.5
			c4.1,0,8.2,0,12.2,0C15.1,4.5,15.4,4.5,15.8,4.5z"/>
		<path class="st0" d="M31.5,18c0,1.5,0,2.9,0,4.4c-7.5,0-14.9,0-22.5,0c0-1.4,0-2.9,0-4.4C16.5,18,24,18,31.5,18z"/>
		<path class="st0" d="M9.1,31.5c0-1.5,0-3,0-4.4c7.5,0,14.9,0,22.4,0c0,1.5,0,2.9,0,4.4C24,31.5,16.6,31.5,9.1,31.5z"/>
		<path class="st0" d="M35.9,52c-2.1-2.1-4.2-4.2-6.2-6.2c1-1,2-2,3.1-3.1c0.9,0.9,2,2,3.1,3.1c2.7-2.7,5.3-5.3,7.9-7.9
			c1.1,1.1,2.1,2.1,3.1,3.1C43.3,44.7,39.6,48.3,35.9,52z"/>
		<path class="st0" d="M9.1,40.5c0-1.5,0-2.9,0-4.4c5.9,0,11.7,0,17.6,0c-0.1,0.2-0.1,0.3-0.2,0.4c-0.6,1.2-1.2,2.3-1.9,3.5
			c-0.1,0.2-0.4,0.5-0.6,0.5c-4.9,0-9.7,0-14.6,0C9.2,40.5,9.2,40.5,9.1,40.5z"/>
	</g>
</g>
</svg>
