<!-- Generator: Adobe Illustrator 21.0.2, SVG Export Plug-In  -->
<svg version="1.1"
	 xmlns="http://www.w3.org/2000/svg" xmlns:xlink="http://www.w3.org/1999/xlink" xmlns:a="http://ns.adobe.com/AdobeSVGViewerExtensions/3.0/"
	 x="0px" y="0px" width="25.3px" height="25.3px" viewBox="0 0 25.3 25.3"
	 style="overflow:scroll;enable-background:new 0 0 25.3 25.3;" xml:space="preserve">
<style type="text/css">
	.st0{opacity:0.32;fill:#3399FF;}
</style>
<defs>
</defs>
<path id="video-14_2_" class="st0" d="M13.7,2.1c5.3,0.5,9.5,5,9.5,10.5c0,1.5-0.3,3-0.9,4.3l1.8,1.1c0.8-1.6,1.2-3.5,1.2-5.4
	C25.3,6,20.2,0.5,13.7,0V2.1z M3,17c-0.6-1.3-0.9-2.8-0.9-4.3c0-5.5,4.2-10,9.5-10.5V0C5.1,0.5,0,6,0,12.6c0,1.9,0.4,3.8,1.2,5.4
	L3,17z M21.2,18.8c-1.9,2.7-5,4.4-8.5,4.4S6,21.5,4.1,18.8l-1.8,1.1c2.3,3.3,6.1,5.5,10.4,5.5c4.3,0,8.1-2.2,10.4-5.5L21.2,18.8z
	 M12.7,4.2C8,4.2,4.2,8,4.2,12.6s3.8,8.5,8.4,8.5s8.4-3.8,8.4-8.5S17.3,4.2,12.7,4.2z M10.5,15.8V9.5l6.3,3.3L10.5,15.8z"/>
</svg>
