<!-- Generator: Adobe Illustrator 21.0.2, SVG Export Plug-In  -->
<svg version="1.1"
	 xmlns="http://www.w3.org/2000/svg" xmlns:xlink="http://www.w3.org/1999/xlink" xmlns:a="http://ns.adobe.com/AdobeSVGViewerExtensions/3.0/"
	 x="0px" y="0px" width="49.7px" height="47.7px" viewBox="0 0 49.7 47.7"
	 style="overflow:scroll;enable-background:new 0 0 49.7 47.7;" xml:space="preserve">
<style type="text/css">
	.st0{fill:#9E9E9E;}
</style>
<defs>
</defs>
<g>
	<path class="st0" d="M9.2,15.3c0.3-1.6,0.3-1.6,1.7-1.6c10.6,0,21.2,0,31.8,0c0.6,0,1.3,0.1,1.4-0.8c0.1-0.6-0.4-0.8-1.4-0.8
		c-10.5,0-21,0-31.5,0c-0.3,0-0.7,0-1,0c0-0.6,0-1.1,0-1.6c0.4,0,0.7,0,1.1,0c10.5,0,20.9,0,31.4,0c0.6,0,1.5,0.2,1.5-0.8
		c0-0.9-0.8-0.8-1.5-0.8c-10.6,0-21.1,0-31.7,0c-0.3,0-0.7,0-1.1,0c-0.2-0.5-0.3-1-0.5-1.6c0.4,0,0.7,0,1,0c10.2,0,20.4,0,30.7,0
		c1.1,0,1.6-0.2,1.5-0.8c-0.1-0.9-0.9-0.8-1.5-0.8c-10.6,0-21.2,0-31.9,0C8.4,5.7,8,5.5,7.6,5c-0.8-1.2-2-1.8-3.5-1.8
		c-0.7,0-1.3,0-2,0C1,3.2,0.4,2.5,0.4,1.6C0.4,0.6,1.1,0,2.2,0C8.1,0,14.1,0,20,0c7.1,0,14.3,0,21.4,0c4.8,0,7.6,2.7,7.8,5.8
		c0.2,3.4,0.2,6.8,0,10.1c-0.2,3.2-2.8,5.9-6.1,6.4c-1.4,0.2-2.7,0.2-4.1,0.2c-12,0-24.1,0-36.1,0c-0.4,0-0.8,0-1.2-0.1
		c-0.8-0.2-1.2-0.9-1.1-1.7c0.1-0.8,0.7-1.4,1.5-1.4c0.5,0,1,0,1.5,0C4.9,19.6,6.1,19,7,17.9c0.7-0.7,1.4-1,2.4-1
		c10.5,0,20.9,0,31.4,0c0.3,0,0.7,0,1-0.1c0.3-0.1,0.5-0.5,0.5-0.8c0-0.3-0.3-0.6-0.6-0.7c-0.3-0.1-0.7-0.1-1-0.1
		c-10.2,0-20.3,0-30.5,0C9.9,15.3,9.6,15.3,9.2,15.3z"/>
	<path class="st0" d="M40.8,32.3c0,0.1,0,0.2,0,0.2C40.4,34,40.4,34,38.8,34c-10.5,0-20.9,0-31.4,0c-0.2,0-0.5-0.1-0.6,0
		c-0.3,0.2-0.7,0.5-0.7,0.7c0,0.3,0.3,0.7,0.6,0.9c0.2,0.1,0.5,0,0.8,0c10.5,0,21,0,31.5,0c0.3,0,0.6,0,1,0c0,0.5,0,1,0,1.6
		c-0.3,0-0.6,0-0.9,0c-10.5,0-21,0-31.5,0c-0.2,0-0.5-0.1-0.7,0c-0.3,0.2-0.7,0.5-0.7,0.8c0,0.2,0.4,0.6,0.6,0.8
		c0.2,0.1,0.5,0,0.8,0c10.6,0,21.1,0,31.7,0c1.4,0,1.5,0,1.7,1.6c-0.3,0-0.6,0-1,0c-10.3,0-20.5,0-30.8,0c-0.3,0-0.6-0.1-0.8,0
		c-0.3,0.2-0.6,0.5-0.6,0.8c0,0.3,0.4,0.6,0.6,0.8c0.2,0.1,0.5,0,0.8,0c10.7,0,21.3,0,32,0c0.6,0,1,0.1,1.4,0.6
		c0.3,0.4,0.7,0.7,1.1,1c0.7,0.6,1.6,1,2.6,0.9c0.6,0,1.2,0,1.8,0c1,0,1.7,0.7,1.7,1.7c0,0.9-0.7,1.5-1.7,1.5c-5.3,0-10.6,0-15.9,0
		c-7.9,0-15.9,0.1-23.8-0.1c-1.9,0-4-0.5-5.6-1.9c-1.4-1.3-2.3-2.9-2.6-4.8C0,40.6,0,40.2,0,39.9c0-2.6,0-5.2,0-7.8
		c0-3.6,1.9-7,8.6-7c13,0,25.9,0,38.9,0c1.5,0,2.2,0.5,2.2,1.6c0,1.1-0.7,1.6-2.3,1.6c-0.5,0-0.9,0-1.4,0c-1.5-0.1-2.7,0.6-3.6,1.8
		c-0.4,0.5-0.8,0.7-1.4,0.7c-10.6,0-21.2,0-31.9,0c-0.6,0-1.4-0.2-1.5,0.8c-0.1,0.6,0.4,0.8,1.5,0.8c10.2,0,20.4,0,30.6,0
		C40.1,32.3,40.4,32.3,40.8,32.3z"/>
</g>
</svg>
