<!-- Generator: Adobe Illustrator 21.0.2, SVG Export Plug-In  -->
<svg version="1.1"
	 xmlns="http://www.w3.org/2000/svg" xmlns:xlink="http://www.w3.org/1999/xlink" xmlns:a="http://ns.adobe.com/AdobeSVGViewerExtensions/3.0/"
	 x="0px" y="0px" width="22px" height="25.3px" viewBox="0 0 22 25.3" style="overflow:scroll;enable-background:new 0 0 22 25.3;"
	 xml:space="preserve">
<style type="text/css">
	.st0{opacity:0.32;}
	.st1{fill:#3399FF;}
</style>
<defs>
</defs>
<g class="st0">
	<g>
		<path class="st1" d="M7.4,2.1c0-0.7,0-1.4,0-2.1c1.4,0,2.8,0,4.2,0c0,0.7,0,1.4,0,2.1c0.2,0,0.3,0,0.4,0c1.9,0,3.8,0,5.8,0
			c0.8,0,1.2,0.4,1.2,1.2c0,3.6,0,7.2,0,10.8c0,0.1,0,0.1,0,0.2c-0.7,0-1.4,0-2.1,0c0-0.1,0-0.2,0-0.4c0-2.8,0-5.6,0-8.3
			c0-1-0.4-1.3-1.3-1.3c-0.2,0-0.5,0-0.8,0c0,0.4,0,0.7,0,1c-3.5,0-7,0-10.5,0c0-0.3,0-0.6,0-1c-0.5,0-0.9,0-1.3,0
			C2.5,4.3,2.2,4.7,2.1,5.2c0,0.1,0,0.2,0,0.3c0,5.5,0,10.9,0,16.4c0,0.9,0.4,1.3,1.3,1.3c2.6,0,5.1,0,7.7,0c0.3,0,0.4,0.1,0.5,0.3
			c0.3,0.6,0.6,1.2,0.9,1.8c0,0-0.1,0-0.2,0c-3.7,0-7.3,0-11,0c-0.8,0-1.2-0.4-1.2-1.2c0-6.9,0-13.9,0-20.8c0-0.8,0.4-1.2,1.2-1.2
			c1.9,0,3.8,0,5.7,0C7.1,2.1,7.2,2.1,7.4,2.1z"/>
		<path class="st1" d="M14.8,8.4c0,0.7,0,1.4,0,2.1c-3.5,0-7,0-10.5,0c0-0.7,0-1.3,0-2.1C7.7,8.4,11.2,8.4,14.8,8.4z"/>
		<path class="st1" d="M4.2,14.7c0-0.7,0-1.4,0-2.1c3.5,0,7,0,10.5,0c0,0.7,0,1.4,0,2.1C11.3,14.7,7.8,14.7,4.2,14.7z"/>
		<path class="st1" d="M16.8,24.4c-1-1-2-2-2.9-2.9c0.5-0.5,0.9-1,1.5-1.5c0.4,0.4,0.9,0.9,1.4,1.5c1.3-1.3,2.5-2.5,3.7-3.7
			c0.5,0.5,1,1,1.5,1.5C20.3,20.9,18.6,22.7,16.8,24.4z"/>
		<path class="st1" d="M4.2,19c0-0.7,0-1.4,0-2.1c2.7,0,5.5,0,8.2,0c0,0.1-0.1,0.1-0.1,0.2c-0.3,0.5-0.6,1.1-0.9,1.6
			c-0.1,0.1-0.2,0.2-0.3,0.2c-2.3,0-4.6,0-6.8,0C4.3,19,4.3,19,4.2,19z"/>
	</g>
</g>
</svg>
