<!-- Generator: Adobe Illustrator 21.0.2, SVG Export Plug-In  -->
<svg version="1.1"
	 xmlns="http://www.w3.org/2000/svg" xmlns:xlink="http://www.w3.org/1999/xlink" xmlns:a="http://ns.adobe.com/AdobeSVGViewerExtensions/3.0/"
	 x="0px" y="0px" width="54px" height="54px" viewBox="0 0 54 54" style="overflow:scroll;enable-background:new 0 0 54 54;"
	 xml:space="preserve">
<style type="text/css">
	.st0{fill:#FFFFFF;}
</style>
<defs>
</defs>
<path id="video-14_1_" class="st0" d="M29.3,4.5c11.4,1.1,20.3,10.8,20.3,22.4c0,3.3-0.7,6.4-2,9.3l3.9,2.3C53.1,35,54,31.1,54,26.9
	C54,12.8,43.1,1.1,29.3,0V4.5z M6.5,36.2c-1.3-2.8-2-6-2-9.3c0-11.7,8.9-21.3,20.3-22.4V0C10.9,1.1,0,12.8,0,26.9
	c0,4.1,0.9,8,2.6,11.5L6.5,36.2z M45.2,40.1c-4.1,5.7-10.7,9.4-18.2,9.4s-14.2-3.7-18.2-9.4l-3.9,2.3C9.7,49.4,17.8,54,27,54
	c9.2,0,17.3-4.6,22.2-11.6L45.2,40.1z M27,8.9c-9.9,0-18,8.1-18,18s8.1,18,18,18s18-8.1,18-18S37,8.9,27,8.9z M22.5,33.7V20.2
	L36,27.3L22.5,33.7z"/>
</svg>
