<!-- Generator: Adobe Illustrator 19.2.1, SVG Export Plug-In  -->
<svg version="1.1"
	 xmlns="http://www.w3.org/2000/svg" xmlns:xlink="http://www.w3.org/1999/xlink" xmlns:a="http://ns.adobe.com/AdobeSVGViewerExtensions/3.0/"
	 x="0px" y="0px" width="727px" height="721.6px" viewBox="0 0 727 721.6" style="enable-background:new 0 0 727 721.6;"
	 xml:space="preserve">
<style type="text/css">
	.st0{fill-rule:evenodd;clip-rule:evenodd;fill:#76B877;stroke:#000000;stroke-width:0.216;stroke-miterlimit:22.9256;}
	.st1{fill-rule:evenodd;clip-rule:evenodd;fill:#FFFFFF;}
	.st2{fill-rule:evenodd;clip-rule:evenodd;fill:#009944;}
	.st3{fill-rule:evenodd;clip-rule:evenodd;}
	.st4{fill-rule:evenodd;clip-rule:evenodd;fill:#76B877;}
	.st5{fill-rule:evenodd;clip-rule:evenodd;fill:#E60012;}
</style>
<defs>
</defs>
<path class="st0" d="M363.5,0.1c200.1,0,363.4,162,363.4,360.7S563.6,721.5,363.5,721.5S0.1,559.5,0.1,360.8S163.3,0.1,363.5,0.1
	L363.5,0.1z"/>
<path class="st1" d="M363.5,59.8c167,0,303.3,135.2,303.3,301s-136.2,301-303.3,301c-167,0-303.3-135.2-303.3-301
	S196.5,59.8,363.5,59.8L363.5,59.8z"/>
<path class="st2" d="M369.9,267.4l0-10.3c0.9-0.1,2.1-0.1,3.1-0.2c2.9-0.1,5.1,0.5,8.1,1.2c3.8,0.8,8.5,2.4,12.1,2.8
	c1.8,0.2,2.4-1.3,0.3-2.9c0,0-12.1-7.9-23.6-13l0.1-21.7c11.8-3.3,32.1-10.3,33.3-20.3c0,0,8.3-17.4-33.1-23.4l0.1-20.9
	c9.7-1.9,30.2-7.1,39.1-18.8c5.3-7,5.5-15.2,1.4-22.9c-4.7-8.8-16.6-18-40.2-15.5c0,0,0-0.3,0-0.6c-0.2-1.7-0.9-7.7,0.9-10.3
	c0.9-1.4,2.3-1.7,3.2-3.2c2.4-4.1,3-9.7-5.6-12.5c-5.3-1.9-13.1-3.2-16.8-0.9c-2.8,1.7-2.6,4.9-2.8,8.2c-0.2,2.7-0.7,5.4,0.8,7.8
	c1.3,2.1,3,1.7,4.5,3.7c1.1,1.5,2.2,3.9,2.2,8.2l0.1,2.1c-8.3,1.8-17.6,3.7-20.3,3.7c-9.6-0.9-22.2-2.3-29.4,6c-1.7,2-2.9,4.8-3,7.9
	c-0.1,5.1,1.7,8.3,6.5,9.8c4.1,1.3,11.1,1.2,20.8-6.5c0,0,5.1-5.4,17.9-6.3c2.7-0.2,5.4-0.4,8.2-0.6l1.1,27.6
	c-3.6,0.6-7.3,1.6-12,3.8c-9.2,4.3-19.3,11.8-18.6,24c0,0,1.2,15.9,32.5,18.6l0.8,20c-11.4,5.8-17.9,13.2-19.3,17.2
	c-0.9,2.7-0.8,5.6-0.2,8.2c1.6,7,8.6,12,14.5,15.4c1.9,1.1,4.2,2.2,6.9,3.2l0.4,8.6c0,2.4,0,8.6,1.7,10.5
	C366.5,276.2,370.2,276.1,369.9,267.4L369.9,267.4z M370.2,208.1l0.1-15.4c5.7,0.9,15.3,2.7,15.6,5.4c0,0,2.2,1.6-1,3.9
	C382.8,203.4,376.9,205.5,370.2,208.1L370.2,208.1z M370.5,144.3l0.1-27.2c1.5-0.1,3-0.1,4.4-0.2c13.7-0.4,29.5,2.1,23.2,14.8
	c-2.3,4.5-8.1,9.7-22.9,11.9C373.6,143.9,372,144.1,370.5,144.3L370.5,144.3z M359.4,160.3l0.8,18.5c-6-0.3-15.7-1.9-16-8.1
	C344.2,170.7,343.5,163.3,359.4,160.3L359.4,160.3z M362.1,225.3l0.7,16.6c-0.3-0.1-0.6-0.2-0.9-0.3c-6.7-2.1-9.4-4.1-8.8-7.6
	C354.1,228.9,357.9,226.7,362.1,225.3L362.1,225.3z"/>
<path class="st2" d="M362.8,148.4c16.8,0,35.2,0.3,50.2,8.4c52.3,28.3,87.5,105.5,87.5,190.8c0,84.4-36,159.4-87.4,188.3
	c-15.4,8.7-32.8,10.9-50.2,10.9c-72.3,0-131.2-89.5-131.2-199.2S290.6,148.4,362.8,148.4L362.8,148.4z M362.8,546.8
	c-17.4,0-32.3,0.9-47.7-7.7c-51.5-28.8-90-107-90-191.5c0-90,41.3-169.9,98.2-194.5c12.4-5.4,25.9-4.7,39.5-4.7
	c72.3,0,131.2,89.5,131.2,199.2S435.1,546.8,362.8,546.8L362.8,546.8z"/>
<path class="st2" d="M357.5,144.8c108.5,0,197,91.1,197,202.8s-88.5,202.8-197,202.8s-197-91.1-197-202.8S248.9,144.8,357.5,144.8
	L357.5,144.8z M357.5,152c104.6,0,189.8,87.9,189.8,195.6c0,107.7-85.3,195.6-189.8,195.6c-104.6,0-189.8-87.9-189.8-195.6
	C167.6,239.9,252.9,152,357.5,152L357.5,152z"/>
<path class="st2" d="M381.6,397.9c59.2,0,113.6,11.1,156.1,29.6l-2.5,6c-41.7-17.8-95.3-28.5-153.6-28.5
	c-75.9,0-143.8,18.2-187.8,46.4l-3.5-5.1C235.3,416.9,304.4,397.9,381.6,397.9L381.6,397.9z"/>
<path class="st2" d="M370.8,485.6c39,0,75.7,6.5,107.2,17.9l-6.4,4.9c-29.9-9.9-64.2-15.6-100.8-15.6c-46.2,0-85.7,8.1-120.2,23.4
	l-6.8-4.6C279.5,494.9,322.6,485.6,370.8,485.6L370.8,485.6z"/>
<path class="st2" d="M384.5,287.9c59.1-2.9,104.3-13.2,145.8-33.7l-2.8-5.9c-40.8,19.8-85.1,29.6-143.4,32.5
	c-75.8,3.7-144.5-11-189.9-37.1l-3.3,5.3C237.5,276.2,307.4,291.7,384.5,287.9L384.5,287.9z"/>
<path class="st2" d="M369.4,214.1c36.8-2.5,71.1-13.5,100.3-30.5l-6.3-6c-27.7,15-59.9,26.1-94.3,28.5c-43.6,3-80.6-13.8-113.9-31.7
	l-4.3,6.8C285.4,200.8,324,217.2,369.4,214.1L369.4,214.1z"/>
<path class="st3" d="M182.8,621.8c1.2-2.8,1.7-5.4,1.3-8l0.9-0.3c1.7,2.5,2.7,4.3,3.1,5.4c0.4,1.1,0.4,1.9,0,2.4
	c-0.4,0.5-1,0.9-1.7,1.3c-0.8,0.4-1.6,0.4-2.6,0l8.1,6.4l3.2-0.8c0.5-0.1,0.8-0.2,1,0c0.2,0.2,0.5,1.2,0.9,3.1
	c0.4,1.9,0.5,3,0.3,3.2c-0.2,0.3-0.6,0.1-1.3-0.4l-22.4-17.6c-5.7,7-9.6,11.4-11.5,13.3c-2,1.9-4.1,3.2-6.3,4
	c-2.3,0.8-5.5,1.4-9.6,1.8l-0.1-0.9c3.8-0.6,7.1-2.2,9.9-4.6c2.8-2.4,6.2-6.1,10-11c2.1-2.6,4.1-5.4,6.1-8.3
	c1.2,1.7,2.1,3.3,2.7,4.7L182.8,621.8L182.8,621.8z"/>
<path class="st3" d="M239.2,668.9l1.8-4c0.5-1.2,0.9-2.3,1.3-3.3c1.7,1.2,2.9,2.1,3.5,2.7c0.6,0.6,0.9,1,0.8,1.2
	c-0.1,0.3-0.7,0.4-1.8,0.4l-2.1,4.7l6.4,2.8l2.8-1.8c0.3-0.2,0.7-0.3,1-0.1c0.3,0.1,0.6,0.6,0.9,1.4l1,2.5c0.3,0.8,0.5,1.4,0.4,1.7
	c-0.1,0.3-0.5,0.3-1,0l-11.9-5.2l-5.6,12.8c-0.5,1.2-1.2,2-1.9,2.4c-0.7,0.4-1.7,0.5-2.7,0.5c-1.1-0.1-1.8-0.2-2.1-0.3
	c-0.3-0.1-0.5-0.5-0.4-0.9c0.3-1,0.2-2-0.2-2.8c-0.4-0.8-1.4-2-3-3.5l0.3-0.7c2.3,1.7,3.7,2.7,4.5,3c0.7,0.3,1.3,0.4,1.6,0.4
	c0.3-0.1,0.7-0.5,1-1.2l4.9-11.2l-8.1-3.6c-0.7,0.6-1.3,0.8-1.8,0.6c-0.4-0.2-1.1-1.5-2-4c1.1,0.2,2,0.1,2.6-0.3
	c0.7-0.4,2.1-1.3,4.4-3c2.2-1.6,3.8-2.8,4.6-3.5l-9.6-4.2c-0.7-0.3-1.3-0.5-1.8-0.5l0-2c0.5,0.4,1.1,0.7,1.9,1.1l10.6,4.7
	c1.7-1.5,3.7-3.4,5.9-5.8c0.8,0.8,1.7,1.8,2.5,2.7c0.8,1,1.2,1.5,1.3,1.7c0.1,0.2,0.1,0.3,0,0.3c-0.1,0.2-0.5,0.3-1.1,0.1
	c-0.6-0.2-1.3,0-2,0.6c-0.8,0.6-1.7,1.3-2.7,2.1l13.3,5.9l2.7-1.6c0.3-0.2,0.6-0.2,0.9-0.1c0.2,0.1,0.7,0.9,1.3,2.5
	c0.6,1.6,0.9,2.5,0.8,2.7c-0.1,0.2-0.4,0.3-0.9,0l-19.3-8.5c-3.2,2.4-6.7,4.8-10.6,7.4L239.2,668.9L239.2,668.9z M231.9,668.8
	c0.6,1,1.1,2,1.5,3c0.4,1,0.6,1.6,0.7,1.8c0,0.2,0,0.4-0.1,0.6c-0.1,0.2-0.2,0.3-0.4,0.3c-0.2,0-0.4,0-0.6-0.2
	c-0.2-0.2-0.4-0.3-0.7-0.4c-0.3-0.1-0.5-0.1-0.8-0.1c-3.2,1.3-6.1,2.3-8.6,2.8c-2.5,0.5-5.4,0.9-8.7,1.2l-0.2-1
	C221,675.1,226.9,672.4,231.9,668.8L231.9,668.8z M243.4,675c2.6,3.2,4.5,6,5.8,8.2c1.3,2.3,1.7,4,1.1,5.3c-0.3,0.8-0.9,1.5-1.7,2.2
	c-0.8,0.7-1.3,0.9-1.7,0.7c-0.2-0.1-0.4-0.3-0.5-0.6c-0.1-0.3-0.2-0.9-0.2-1.8c-0.3-4.6-1.5-9.1-3.5-13.6L243.4,675L243.4,675z"/>
<path class="st3" d="M326.8,668.6c3.6,1.3,5.3,2.1,5.3,2.4c0,0.3-0.6,0.6-1.7,1l-0.7,5.8c-0.1,1-0.2,1.8-0.2,2.4l-0.1,1.5
	c0,0.2-0.2,0.4-0.5,0.6c-0.3,0.1-0.9,0.3-1.8,0.5c-0.9,0.2-1.5,0.3-1.7,0.3c-0.2,0-0.3-0.1-0.3-0.3l0.3-1.8c0.1-0.7,0.3-1.7,0.4-2.9
	l0.6-5C326.7,671.1,326.8,669.6,326.8,668.6L326.8,668.6z M335.9,673.2c3.5,2,5.9,3.4,7.3,4.4c1.4,1,2.3,1.8,2.7,2.4
	c0.4,0.6,0.5,1.4,0.4,2.3c-0.1,0.9-0.3,1.6-0.7,2.1c-0.3,0.5-0.7,0.7-1.1,0.7c-0.4,0-0.6-0.2-0.9-0.4c-0.2-0.2-0.7-1.1-1.5-2.5
	c-0.8-1.4-1.7-2.8-2.9-4.2c-1.1-1.4-2.5-2.7-4-4L335.9,673.2L335.9,673.2z M319.8,672.2c1.2,1,2.2,1.8,2.8,2.5
	c0.6,0.7,0.9,1.1,0.9,1.2c0,0.1-0.2,0.2-0.7,0.2s-0.8,0.1-1.2,0.2c-0.4,0.2-1.3,0.8-2.9,1.8c-1.5,1.1-3,2-4.4,2.7
	c-1.4,0.7-3.3,1.6-5.6,2.7l-0.6-0.8C312.9,679.4,316.8,675.9,319.8,672.2L319.8,672.2z M326.3,686.9l9.4,1.1l1.3-1.4
	c0.2-0.3,0.4-0.4,0.6-0.4c0.2,0,0.9,0.5,2,1.5c1.1,1,1.6,1.6,1.6,1.8c0,0.2-0.5,0.5-1.5,0.7l-1.8,15.4c-0.1,0.5-0.1,0.9-0.1,1.4l0,1
	c0,0.1-0.1,0.2-0.1,0.3c-0.1,0.1-0.4,0.2-0.9,0.4c-0.5,0.2-1.1,0.3-1.8,0.4c-0.7,0.1-1.1,0.1-1.2,0.1c-0.2,0-0.2-0.1-0.2-0.4
	l0.3-2.6l-14.9-1.8l-0.3,2.2c0,0.3-0.1,0.5-0.3,0.6c-0.1,0.1-0.7,0.2-1.7,0.4c-1,0.1-1.7,0.2-2,0.2c-0.1,0-0.1-0.2-0.1-0.4
	c0.3-1.3,0.5-2.8,0.7-4.4l1.5-12.4c-3.5,1.1-6.8,1.9-10.1,2.4l-0.3-0.9c4.1-1.3,7.7-2.6,10.7-3.8c0.2-1.4,0.3-2.7,0.3-3.9
	c1.2,0.3,2.6,1,4.2,2c6.1-2.7,10.5-5.6,13.3-8.7c2.7,2.2,4,3.6,3.9,4.1c0,0.1-0.1,0.2-0.2,0.2c-0.1,0-0.4,0-0.8,0
	c-0.4,0-1.2,0.2-2.3,0.8C332.6,684.1,329.5,685.5,326.3,686.9L326.3,686.9z M320.3,691.8l14.9,1.8l0.5-4.2l-12.1-1.4
	c-1.3,0.5-2.3,0.9-3,1.2L320.3,691.8L320.3,691.8z M335.1,695.1l-14.9-1.8l-0.5,4.3l14.9,1.8L335.1,695.1L335.1,695.1z M333.9,705
	l0.5-4.4l-14.9-1.8l-0.5,4.4L333.9,705L333.9,705z"/>
<path class="st3" d="M397.3,674.9l21.1-5.2l1.1-3.4c0.1-0.4,0.4-0.6,0.7-0.7c0.3-0.1,1.3,0.3,2.9,1.2c1.6,0.9,2.4,1.5,2.5,1.8
	c0.1,0.3-0.2,0.6-0.7,0.7l-28.2,6.9l7.2,29.2l23.8-5.8l1.3-3.5c0.2-0.4,0.4-0.7,0.7-0.7c0.3-0.1,1.3,0.4,3,1.4
	c1.7,1,2.6,1.6,2.7,1.9c0.1,0.3-0.3,0.5-1,0.7l-30.4,7.4l-0.4,1.6c-0.1,0.4-0.3,0.6-0.5,0.7c-0.3,0.1-1.8-0.4-4.3-1.5
	c0.6-0.8,0.9-1.4,1-1.8c0.1-0.4,0-0.9-0.2-1.7l-6.6-27.1c-0.3-1.2-0.6-2.3-1-3.5C393.8,674,395.6,674.4,397.3,674.9L397.3,674.9z
	 M407.3,682.4c-0.8,2-2.2,4.6-4.3,7.7l-0.8-0.4c2.1-4.4,3.1-9.3,3-14.9c1,0.1,2,0.2,2.9,0.4c0.9,0.2,1.5,0.3,1.7,0.4
	c0.2,0.1,0.3,0.2,0.4,0.4c0,0.2-0.1,0.3-0.4,0.5c-0.3,0.2-0.5,0.3-0.7,0.5c-0.1,0.2-0.3,0.8-0.6,1.7c-0.3,0.9-0.5,1.7-0.7,2.3
	l10.4-2.6l1.1-2.7c0.1-0.3,0.3-0.5,0.4-0.5c0.1,0,0.4,0,0.8,0.2c0.4,0.2,1.1,0.5,2,1c0.9,0.5,1.5,0.8,1.6,0.9
	c0.1,0.1,0.2,0.2,0.3,0.4c0.1,0.3-0.1,0.5-0.5,0.6l-9.4,2.3c0.6,2.6,0.9,4.9,1.1,6.7l6.7-1.6l0.9-2.8c0.2-0.5,0.4-0.7,0.6-0.8
	c0.3-0.1,1.2,0.3,2.8,1c1.6,0.8,2.5,1.3,2.6,1.7c0.1,0.4-0.2,0.6-0.7,0.8l-12.7,3.1c0.1,0.9,0.1,1.8,0,2.8c3.1,0.2,5.4,0.5,6.9,0.8
	c1.5,0.3,2.6,0.7,3.2,1.2c0.6,0.5,1,1.1,1.2,1.9c0.2,0.8,0.2,1.5,0.1,2.2c-0.2,0.7-0.4,1-0.7,1.1c-0.3,0.1-0.5,0-0.7-0.1
	c-0.2-0.1-0.7-0.5-1.4-1.3c-0.7-0.8-1.9-1.6-3.6-2.7c-1.7-1-3.4-1.8-5.1-2.5c-0.3,2.2-1.1,4.2-2.6,6c-1.5,1.9-4,4-7.4,6.4l-0.6-0.7
	c3.3-3.2,5.5-5.8,6.3-7.7c0.9-1.9,1.2-4.2,1-6.7l-9.1,2.2c-0.4,0.1-0.9,0.3-1.3,0.5l-0.9-1.5c0.5,0,1-0.1,1.5-0.2l9.5-2.3
	c-0.1-1.3-0.5-3.6-1.2-6.7L407.3,682.4L407.3,682.4z"/>
<path class="st3" d="M481.2,648.2c2.5,0.5,4.4,1.1,5.8,1.7c1.4,0.6,2.3,1.4,2.8,2.5c0.3,0.6,0.3,1.4,0,2.4c-0.3,1-0.6,1.6-1.1,1.8
	c-0.5,0.2-1-0.1-1.5-1c-1.2-1.9-2.2-3.3-3.2-4.2c-0.9-0.9-2-1.7-3.1-2.4L481.2,648.2L481.2,648.2z M492.8,655.3
	c0.3-3.1,0.1-7-0.4-11.7c1.1,0,2.1,0.1,3.2,0.3c1.1,0.2,1.7,0.3,2,0.4c0.3,0.1,0.5,0.2,0.5,0.3c0.1,0.1-0.1,0.3-0.4,0.5
	c-0.3,0.2-0.6,0.5-0.8,0.8c-0.2,0.3-0.5,1.2-0.9,2.7c-0.4,1.5-1,3.5-1.7,6.1l6.4-2.9l0.4-1.9c0.1-0.3,0.2-0.6,0.4-0.6
	c0.2-0.1,0.6-0.1,1.2,0.1c0.6,0.1,1.3,0.3,2.1,0.5c0.7,0.2,1.3,0.4,1.6,0.6c0.3,0.1,0.5,0.3,0.6,0.5c0.1,0.2,0.1,0.4,0,0.6
	c-0.1,0.2-0.2,0.4-0.5,0.5c-0.2,0.1-0.4,0.2-0.6,0.3c-0.6,0.3-1.2,0.8-1.8,1.7c-0.6,0.9-1.5,2.5-2.6,4.8l-0.8-0.2
	c0.5-2.4,0.7-4.4,0.8-5.8l-24.8,11.2c1.8,3.9,1.6,6.4-0.6,7.3c-0.7,0.3-1.2,0.4-1.6,0.2c-0.4-0.2-0.7-0.4-0.9-0.8
	c-0.2-0.4-0.1-1.1,0.3-2c0.6-1.5,0.9-2.7,0.9-3.7c0-1-0.2-2.2-0.7-3.9l0.9-0.4c0.5,0.7,0.9,1.4,1.2,2.1L492.8,655.3L492.8,655.3z
	 M472.6,653.5c2.4,0.2,4.3,0.4,5.4,0.7c1.2,0.3,2,0.5,2.5,0.9c0.5,0.3,0.8,0.8,1.1,1.4c0.3,0.6,0.3,1.3,0.1,2.1
	c-0.2,0.8-0.5,1.3-1,1.5c-0.5,0.2-1,0-1.6-0.6c-1.3-1.4-2.4-2.4-3.1-2.9c-0.7-0.5-1.9-1.1-3.7-2L472.6,653.5L472.6,653.5z
	 M497.4,670.7l2.3,5.1c0.7,1.5,1,2.5,1,3.2c0,0.7-0.1,1.3-0.4,1.9c-0.3,0.6-0.8,1.3-1.6,2c-0.8,0.8-1.3,1.2-1.5,1.3
	c-0.2,0.1-0.5,0-0.7-0.3c-0.5-0.6-0.9-1-1.3-1.3c-0.4-0.3-1-0.4-1.8-0.5c-0.8,0-1.9,0-3.4,0.2l-0.4-0.9c2.5-0.6,4.2-1.1,5-1.5
	c0.8-0.4,1.4-0.7,1.6-1.1c0.2-0.4,0.2-1-0.2-1.8l-2.1-4.6l-13.4,6.1c-0.7,0.3-1.2,0.7-1.5,1l-1.4-1.3c0.6-0.1,1.3-0.3,2-0.7
	l13.8-6.2c-0.7-1.6-1.4-2.9-1.9-3.8c1.1-0.2,2.1-0.4,3.1-0.5c1.1-2.3,1.8-4.1,2-5.3l-13.8,6.2c-0.7,0.3-1.2,0.7-1.5,1l-1.5-1.4
	c0.6-0.1,1.3-0.3,2-0.7l14.7-6.6l0.9-1.9c0.1-0.2,0.2-0.4,0.3-0.4c0.2-0.1,1.2,0.1,2.9,0.5c1.7,0.5,2.7,0.9,2.8,1.2
	c0.2,0.4-0.2,0.7-1,0.9c-0.3,0.1-0.5,0.2-0.7,0.3c-0.6,0.3-1.3,0.8-2,1.6c-0.8,0.8-2.1,2.4-3.8,4.6l1.1,2.5l9.1-4.1l0.8-3.6
	c0.1-0.5,0.2-0.8,0.4-0.8c0.3-0.1,1.4,0.1,3.3,0.8c1.9,0.7,2.9,1.1,3,1.3c0.1,0.2-0.1,0.5-0.6,0.7L497.4,670.7L497.4,670.7z"/>
<path class="st3" d="M551.6,614.4c0.4,6.8-0.3,12.5-2.1,17.1c0.3-0.1,0.7-0.3,1.3-0.7l10.5-6.5l0.3-2.4c0-0.3,0.1-0.5,0.3-0.6
	c0.3-0.2,1.2-0.1,2.7,0.1c1.5,0.2,2.4,0.5,2.5,0.7c0.1,0.1-0.1,0.4-0.6,0.6l-14.6,9c-0.7,0.4-1.1,0.8-1.4,1.2l-1.3-0.9
	c-1.1,2.9-2.9,6.2-5.3,9.7l-0.9-0.3c2.2-4.3,3.6-8.5,4.2-12.6c0.6-4.1,0.5-9.5-0.4-16.2c0.8-0.2,1.9-0.4,3.3-0.7
	c1.4-0.3,2.2-0.4,2.3-0.3c0.2,0,0.3,0.1,0.3,0.2c0.1,0.2,0,0.4-0.3,0.7c-0.3,0.3-0.5,0.5-0.6,0.6c6.6,4.3,14.4,5.1,23.4,2.2l0.4,0.7
	c-1,0.5-1.9,1.2-2.4,2c-0.6,0.8-1,1.8-1.1,3c0,0.3-0.1,0.5-0.3,0.6c-0.3,0.2-1.7,0.2-4.3,0c-2.6-0.2-5.2-0.9-7.9-2
	C556.9,618.5,554.2,616.8,551.6,614.4L551.6,614.4z M558.4,636.1l-8.5,5.3c-0.7,0.4-1.1,0.8-1.4,1.2l-1.6-1.2c0.6-0.2,1.2-0.5,1.9-1
	l21-13l0.3-3c0.1-0.4,0.2-0.7,0.3-0.8c0.3-0.2,1.3-0.1,3.1,0.2c1.8,0.3,2.7,0.6,2.8,0.8c0.1,0.2,0,0.4-0.4,0.6l-13.8,8.6
	c0.9,0,1.3,0,1.4,0.2c0.1,0.2,0,0.4-0.3,0.6c-0.3,0.2-0.6,1-0.9,2.3c-1,4.3-1.9,7.7-2.7,10.3l13.8-9.6c-2.2-1.2-4.7-2-7.6-2.7l0-0.7
	c3.3-0.3,6.1-0.3,8.4,0c2.3,0.3,4,1.2,4.9,2.7c0.5,0.9,0.8,1.7,0.9,2.5c0,0.8-0.1,1.3-0.5,1.5c-0.2,0.2-0.5,0.2-0.8,0.1
	c-0.3-0.1-0.7-0.4-1.4-1c-0.7-0.5-1.5-1.1-2.6-1.7c-9.2,7.6-14.3,12.2-15.3,13.8c-0.1,0.2-0.2,0.3-0.4,0.4c-0.1,0.1-0.3,0-0.6-0.2
	c-0.3-0.2-1.3-0.8-2.8-2c1-1.1,1.7-2,2.1-2.8c0.4-0.8,0.6-2.7,0.7-5.8C558.4,638.7,558.5,636.8,558.4,636.1L558.4,636.1z"/>
<path class="st4" d="M459.2,115.1l3.1-4.1c0.7-0.9,1.6-2,2.6-2.1c1.4-0.1,3.3,2.1,4.2,3c1.5-1.7,3.1-5,5.8-2.5l5.8,5.8
	c1.8,1.8,0.3,3.8,0.1,5.3c2.8-0.7,3.1-0.7,5.8,1.7c1.8,1.6,4.3,4.1,6.3,5.9c0,0,1.3,1.1,0.3,2.6l-2.8,3.2l2.3,2.2
	c0,0,1.7,1.5,0.1,3.3l-5.6,5.9c-0.7,0.7-1.4,1.5-2.4,1.7c-0.8,0.2-2.5-0.6-3.4-0.8c-0.1,0.5,0.9,1.6,0.2,2.9
	c-1.5,2.1-4.4,5.2-6.6,7.6c-1,1.1-1.9,1.9-3.4,0.7l-2.4-2.1c-0.9,1.2-2,3.5-3.7,3.7c-0.8,0.1-2-0.2-2.7-1.1l-5.6-6
	c-1.4-1.5,0.1-3.5,0.4-5c-1,0.1-2.7,0.5-3.9-0.3c-2.1-1.4-4.8-4.4-6.7-6.2c0,0-1.1-0.9-1.2-2.1c0-1.2,2.1-3,2.9-3.9l-2.6-2.2
	c0,0-2.3-2.2,0.3-4.5l5-5.2c0,0,0.8-1,2.2-1.3c1.2-0.2,2.8,0.4,4.1,0.6l-0.3-2C457.1,117.1,457.7,117,459.2,115.1L459.2,115.1z
	 M456.5,131.5h8.3v-8.3h8.1v8.3h8.3v8.1h-8.3v8.3h-8.1v-8.3h-8.3V131.5L456.5,131.5z"/>
<path class="st4" d="M516,150.5l2.3-3c0.5-0.7,1.2-1.5,1.9-1.5c1-0.1,2.4,1.6,3.1,2.2c1.1-1.2,2.3-3.7,4.2-1.9l4.3,4.3
	c1.4,1.4,0.2,2.8,0.1,3.9c2-0.6,2.3-0.5,4.3,1.3c1.3,1.2,3.2,3,4.7,4.3c0,0,1,0.8,0.2,1.9l-2.1,2.4l1.7,1.6c0,0,1.3,1.1,0.1,2.4
	l-4.2,4.3c-0.5,0.5-1,1.1-1.7,1.3c-0.6,0.1-1.8-0.4-2.5-0.6c-0.1,0.4,0.6,1.1,0.2,2.1c-1.1,1.5-3.3,3.8-4.9,5.6
	c-0.7,0.8-1.4,1.4-2.5,0.5l-1.8-1.6c-0.7,0.9-1.5,2.6-2.7,2.7c-0.6,0.1-1.4-0.2-2-0.8l-4.1-4.4c-1-1.1,0.1-2.6,0.3-3.7
	c-0.7,0.1-2,0.4-2.9-0.2c-1.5-1-3.5-3.3-5-4.6c0,0-0.8-0.7-0.9-1.5c0-0.9,1.5-2.2,2.1-2.9l-1.9-1.6c0,0-1.7-1.6,0.2-3.3l3.7-3.8
	c0,0,0.6-0.8,1.7-0.9c0.9-0.1,2.1,0.3,3,0.4l-0.2-1.5C514.5,152,515,152,516,150.5L516,150.5z M514,162.6h6.1v-6.1h6v6.1h6.1v6h-6.1
	v6.1h-6v-6.1H514V162.6L514,162.6z"/>
<path class="st4" d="M555.5,191.9l2-2.6c0.4-0.6,1-1.3,1.7-1.3c0.9-0.1,2.1,1.4,2.7,1.9c1-1.1,2-3.2,3.7-1.6l3.7,3.7
	c1.2,1.2,0.2,2.4,0.1,3.4c1.8-0.5,2-0.4,3.7,1.1c1.2,1.1,2.7,2.6,4,3.8c0,0,0.8,0.7,0.2,1.7l-1.8,2l1.4,1.4c0,0,1.1,1,0.1,2.1
	l-3.6,3.8c-0.4,0.5-0.9,1-1.5,1.1c-0.5,0.1-1.6-0.4-2.2-0.5c-0.1,0.3,0.6,1,0.1,1.8c-1,1.3-2.8,3.3-4.2,4.9
	c-0.6,0.7-1.2,1.2-2.2,0.4l-1.5-1.4c-0.6,0.8-1.3,2.2-2.4,2.3c-0.5,0-1.3-0.1-1.7-0.7l-3.6-3.8c-0.9-1,0.1-2.2,0.2-3.2
	c-0.6,0.1-1.7,0.3-2.5-0.2c-1.3-0.9-3-2.8-4.3-4c0,0-0.7-0.6-0.7-1.3c0-0.8,1.3-1.9,1.8-2.5l-1.6-1.4c0,0-1.5-1.4,0.2-2.9l3.2-3.3
	c0,0,0.5-0.7,1.4-0.8c0.7-0.1,1.8,0.3,2.6,0.4l-0.2-1.3C554.2,193.1,554.6,193.1,555.5,191.9L555.5,191.9z M553.8,202.3h5.3V197h5.2
	v5.3h5.3v5.2h-5.3v5.3h-5.2v-5.3h-5.3V202.3L553.8,202.3z"/>
<path class="st4" d="M583.4,231.6l1.7-2.2c0.4-0.5,0.8-1.1,1.4-1.1c0.8,0,1.8,1.1,2.3,1.6c0.8-0.9,1.7-2.7,3.1-1.4l3.1,3.1
	c1,1,0.1,2,0,2.9c1.5-0.4,1.7-0.4,3.1,0.9c1,0.9,2.3,2.2,3.4,3.2c0,0,0.7,0.6,0.2,1.4l-1.5,1.7l1.2,1.2c0,0,0.9,0.8,0.1,1.8l-3,3.2
	c-0.4,0.4-0.8,0.8-1.3,0.9c-0.5,0.1-1.3-0.3-1.8-0.4c-0.1,0.3,0.5,0.8,0.1,1.6c-0.8,1.1-2.4,2.8-3.6,4.1c-0.5,0.6-1,1-1.8,0.4
	l-1.3-1.1c-0.5,0.6-1.1,1.9-2,2c-0.4,0-1.1-0.1-1.4-0.6l-3-3.3c-0.7-0.8,0.1-1.9,0.2-2.7c-0.5,0.1-1.5,0.3-2.1-0.2
	c-1.1-0.8-2.6-2.4-3.6-3.4c0,0-0.6-0.5-0.6-1.1c0-0.7,1.1-1.6,1.6-2.1l-1.4-1.2c0,0-1.2-1.2,0.2-2.4l2.7-2.8c0,0,0.4-0.6,1.2-0.7
	c0.6-0.1,1.5,0.2,2.2,0.3l-0.1-1.1C582.2,232.7,582.6,232.6,583.4,231.6L583.4,231.6z M581.9,240.4h4.5v-4.5h4.4v4.5h4.5v4.4h-4.5
	v4.5h-4.4v-4.5h-4.5V240.4L581.9,240.4z"/>
<path class="st4" d="M603.1,268.6l1.5-2c0.3-0.4,0.8-1,1.3-1c0.7,0,1.6,1,2,1.5c0.7-0.8,1.5-2.4,2.8-1.2l2.8,2.8
	c0.9,0.9,0.1,1.8,0,2.5c1.3-0.4,1.5-0.3,2.8,0.8c0.9,0.8,2.1,2,3,2.8c0,0,0.6,0.5,0.1,1.3l-1.3,1.5l1.1,1.1c0,0,0.8,0.7,0.1,1.6
	l-2.7,2.8c-0.3,0.3-0.7,0.7-1.1,0.8c-0.4,0.1-1.2-0.3-1.6-0.4c-0.1,0.3,0.4,0.7,0.1,1.4c-0.7,1-2.1,2.5-3.2,3.7
	c-0.5,0.5-0.9,0.9-1.6,0.3l-1.2-1c-0.4,0.6-1,1.7-1.8,1.8c-0.4,0-0.9-0.1-1.3-0.5l-2.7-2.9c-0.7-0.7,0.1-1.7,0.2-2.4
	c-0.5,0.1-1.3,0.3-1.9-0.1c-1-0.7-2.3-2.1-3.2-3c0,0-0.5-0.4-0.6-1c0-0.6,1-1.4,1.4-1.9l-1.2-1.1c0,0-1.1-1.1,0.1-2.2l2.4-2.5
	c0,0,0.4-0.5,1.1-0.6c0.6-0.1,1.3,0.2,1.9,0.3l-0.1-1C602.1,269.5,602.4,269.5,603.1,268.6L603.1,268.6z M601.8,276.4h4v-4h3.9v4h4
	v3.9h-4v4h-3.9v-4h-4V276.4L601.8,276.4z"/>
<path class="st4" d="M609.4,303.8l1.3-1.7c0.3-0.4,0.6-0.8,1.1-0.9c0.6,0,1.3,0.9,1.7,1.2c0.6-0.7,1.3-2,2.3-1l2.3,2.3
	c0.7,0.7,0.1,1.5,0,2.2c1.1-0.3,1.3-0.3,2.3,0.7c0.7,0.7,1.7,1.7,2.6,2.4c0,0,0.5,0.4,0.1,1.1l-1.1,1.3l0.9,0.9c0,0,0.7,0.6,0.1,1.3
	l-2.3,2.4c-0.3,0.3-0.6,0.6-1,0.7c-0.3,0.1-1-0.2-1.4-0.3c-0.1,0.2,0.3,0.6,0.1,1.2c-0.6,0.8-1.8,2.1-2.7,3.1
	c-0.4,0.5-0.8,0.8-1.4,0.3l-1-0.9c-0.4,0.5-0.8,1.4-1.5,1.5c-0.3,0-0.8-0.1-1.1-0.4l-2.3-2.4c-0.6-0.6,0-1.4,0.1-2
	c-0.4,0-1.1,0.2-1.6-0.1c-0.8-0.6-1.9-1.8-2.7-2.5c0,0-0.5-0.4-0.5-0.8c0-0.5,0.8-1.2,1.2-1.6l-1-0.9c0,0-0.9-0.9,0.1-1.8l2-2.1
	c0,0,0.3-0.4,0.9-0.5c0.5-0.1,1.1,0.2,1.6,0.2l-0.1-0.8C608.6,304.6,608.9,304.6,609.4,303.8L609.4,303.8z M608.4,310.4h3.4v-3.4
	h3.3v3.4h3.4v3.3H615v3.4h-3.3v-3.4h-3.4V310.4L608.4,310.4z"/>
<path class="st4" d="M275.9,121l-3.1-4.1c-0.7-0.9-1.6-2-2.6-2.1c-1.4-0.1-3.3,2.1-4.2,3c-1.5-1.7-3.1-5-5.8-2.5l-5.8,5.8
	c-1.8,1.8-0.3,3.8-0.1,5.3c-2.8-0.7-3.1-0.7-5.8,1.7c-1.8,1.6-4.3,4.1-6.3,5.9c0,0-1.3,1.1-0.3,2.6l2.8,3.2l-2.3,2.2
	c0,0-1.7,1.5-0.1,3.3l5.6,5.9c0.7,0.7,1.4,1.5,2.4,1.7c0.8,0.2,2.5-0.6,3.4-0.8c0.1,0.5-0.9,1.6-0.2,2.9c1.5,2.1,4.4,5.2,6.6,7.6
	c1,1.1,1.9,1.9,3.4,0.7l2.4-2.1c0.9,1.2,2,3.5,3.7,3.7c0.8,0.1,2-0.2,2.7-1.1l5.6-6c1.4-1.5-0.1-3.5-0.4-5c1,0.1,2.7,0.5,3.9-0.3
	c2.1-1.4,4.8-4.4,6.7-6.2c0,0,1.1-0.9,1.2-2.1c0-1.2-2.1-3-2.9-3.9l2.6-2.2c0,0,2.3-2.2-0.3-4.5l-5-5.2c0,0-0.8-1-2.2-1.3
	c-1.2-0.2-2.8,0.4-4.1,0.6l0.3-2C278,123.1,277.4,123,275.9,121L275.9,121z M278.2,136.7h-8.3v-8.3h-8.1v8.3h-8.3v8.1h8.3v8.3h8.1
	v-8.3h8.3V136.7L278.2,136.7z"/>
<path class="st4" d="M219.1,156.5l-2.3-3c-0.5-0.7-1.2-1.5-1.9-1.5c-1-0.1-2.4,1.6-3.1,2.2c-1.1-1.2-2.3-3.7-4.2-1.9l-4.3,4.3
	c-1.4,1.4-0.2,2.8-0.1,3.9c-2-0.6-2.3-0.5-4.3,1.3c-1.3,1.2-3.2,3-4.7,4.3c0,0-1,0.8-0.2,1.9l2.1,2.4l-1.7,1.6c0,0-1.3,1.1-0.1,2.4
	l4.2,4.3c0.5,0.5,1,1.1,1.7,1.3c0.6,0.1,1.8-0.4,2.5-0.6c0.1,0.4-0.6,1.1-0.2,2.1c1.1,1.5,3.3,3.8,4.9,5.6c0.7,0.8,1.4,1.4,2.5,0.5
	l1.8-1.6c0.7,0.9,1.5,2.6,2.7,2.7c0.6,0.1,1.4-0.2,2-0.8l4.1-4.4c1-1.1-0.1-2.6-0.3-3.7c0.7,0.1,2,0.4,2.9-0.2c1.5-1,3.5-3.3,5-4.6
	c0,0,0.8-0.7,0.9-1.5c0-0.9-1.5-2.2-2.1-2.9l1.9-1.6c0,0,1.7-1.6-0.2-3.3l-3.7-3.8c0,0-0.6-0.8-1.7-0.9c-0.9-0.1-2.1,0.3-3,0.4
	l0.2-1.5C220.6,158,220.1,157.9,219.1,156.5L219.1,156.5z M221,168.6h-6.1v-6.1h-6v6.1h-6.1v6h6.1v6.1h6v-6.1h6.1V168.6L221,168.6z"
	/>
<path class="st4" d="M179.6,197.8l-2-2.6c-0.4-0.6-1-1.3-1.7-1.3c-0.9,0-2.1,1.4-2.7,1.9c-1-1.1-2-3.2-3.7-1.6l-3.7,3.7
	c-1.2,1.2-0.2,2.4-0.1,3.4c-1.8-0.5-2-0.4-3.7,1.1c-1.2,1.1-2.7,2.6-4,3.8c0,0-0.8,0.7-0.2,1.7l1.8,2l-1.4,1.4c0,0-1.1,1-0.1,2.1
	l3.6,3.8c0.4,0.5,0.9,1,1.5,1.1c0.5,0.1,1.6-0.4,2.2-0.5c0.1,0.3-0.6,1-0.1,1.8c1,1.3,2.8,3.3,4.2,4.9c0.6,0.7,1.2,1.2,2.2,0.4
	l1.5-1.4c0.6,0.8,1.3,2.2,2.4,2.3c0.5,0,1.3-0.1,1.7-0.7l3.6-3.8c0.9-1-0.1-2.2-0.2-3.2c0.6,0.1,1.7,0.3,2.5-0.2
	c1.3-0.9,3-2.8,4.3-4c0,0,0.7-0.6,0.7-1.3c0-0.8-1.3-1.9-1.8-2.5l1.6-1.4c0,0,1.5-1.4-0.2-2.9l-3.2-3.3c0,0-0.5-0.7-1.4-0.8
	c-0.7-0.1-1.8,0.3-2.6,0.4l0.2-1.3C180.9,199.1,180.5,199,179.6,197.8L179.6,197.8z M181.3,208.3H176V203h-5.2v5.3h-5.3v5.2h5.3v5.3
	h5.2v-5.3h5.3V208.3L181.3,208.3z"/>
<path class="st4" d="M151.7,237.5l-1.7-2.2c-0.4-0.5-0.8-1.1-1.4-1.1c-0.8,0-1.8,1.1-2.3,1.6c-0.8-0.9-1.7-2.7-3.1-1.4l-3.1,3.1
	c-1,1-0.1,2,0,2.9c-1.5-0.4-1.7-0.4-3.1,0.9c-1,0.9-2.3,2.2-3.4,3.2c0,0-0.7,0.6-0.2,1.4l1.5,1.7l-1.2,1.2c0,0-0.9,0.8-0.1,1.8
	l3,3.2c0.4,0.4,0.8,0.8,1.3,0.9c0.5,0.1,1.3-0.3,1.8-0.4c0.1,0.3-0.5,0.8-0.1,1.6c0.8,1.1,2.4,2.8,3.6,4.1c0.5,0.6,1,1,1.8,0.4
	l1.3-1.1c0.5,0.6,1.1,1.9,2,2c0.4,0,1.1-0.1,1.4-0.6l3-3.3c0.7-0.8-0.1-1.9-0.2-2.7c0.5,0.1,1.5,0.3,2.1-0.2
	c1.1-0.8,2.6-2.4,3.6-3.4c0,0,0.6-0.5,0.6-1.1c0-0.7-1.1-1.6-1.6-2.1l1.4-1.2c0,0,1.2-1.2-0.2-2.4l-2.7-2.8c0,0-0.4-0.6-1.2-0.7
	c-0.6-0.1-1.5,0.2-2.2,0.3l0.1-1.1C152.8,238.6,152.5,238.5,151.7,237.5L151.7,237.5z M153.2,246.4h-4.5v-4.5h-4.4v4.5h-4.5v4.4h4.5
	v4.5h4.4v-4.5h4.5V246.4L153.2,246.4z"/>
<path class="st4" d="M132,274.5l-1.5-2c-0.3-0.4-0.8-1-1.3-1c-0.7,0-1.6,1-2,1.5c-0.7-0.8-1.5-2.4-2.8-1.2l-2.8,2.8
	c-0.9,0.9-0.1,1.8,0,2.5c-1.3-0.4-1.5-0.3-2.8,0.8c-0.9,0.8-2.1,2-3,2.8c0,0-0.6,0.5-0.1,1.3l1.3,1.5l-1.1,1.1c0,0-0.8,0.7-0.1,1.6
	l2.7,2.8c0.3,0.3,0.7,0.7,1.1,0.8c0.4,0.1,1.2-0.3,1.6-0.4c0.1,0.3-0.4,0.7-0.1,1.4c0.7,1,2.1,2.5,3.2,3.7c0.5,0.5,0.9,0.9,1.6,0.3
	l1.2-1c0.4,0.6,1,1.7,1.8,1.8c0.4,0,0.9-0.1,1.3-0.5l2.7-2.9c0.7-0.7-0.1-1.7-0.2-2.4c0.5,0.1,1.3,0.3,1.9-0.1c1-0.7,2.3-2.1,3.2-3
	c0,0,0.5-0.4,0.6-1c0-0.6-1-1.4-1.4-1.9l1.2-1.1c0,0,1.1-1.1-0.1-2.2l-2.4-2.5c0,0-0.4-0.5-1.1-0.6c-0.6-0.1-1.3,0.2-1.9,0.3l0.1-1
	C133,275.5,132.7,275.4,132,274.5L132,274.5z M133.3,282.4h-4v-4h-3.9v4h-4v3.9h4v4h3.9v-4h4V282.4L133.3,282.4z"/>
<path class="st4" d="M125.6,309.7l-1.3-1.7c-0.3-0.4-0.6-0.8-1.1-0.9c-0.6,0-1.3,0.9-1.7,1.2c-0.6-0.7-1.3-2-2.3-1l-2.3,2.3
	c-0.7,0.7-0.1,1.5,0,2.2c-1.1-0.3-1.3-0.3-2.3,0.7c-0.7,0.7-1.7,1.7-2.6,2.4c0,0-0.5,0.4-0.1,1.1l1.1,1.3l-0.9,0.9
	c0,0-0.7,0.6-0.1,1.3l2.3,2.4c0.3,0.3,0.6,0.6,1,0.7c0.3,0.1,1-0.2,1.4-0.3c0.1,0.2-0.3,0.6-0.1,1.2c0.6,0.8,1.8,2.1,2.7,3.1
	c0.4,0.5,0.8,0.8,1.4,0.3l1-0.9c0.4,0.5,0.8,1.4,1.5,1.5c0.3,0,0.8-0.1,1.1-0.4l2.3-2.4c0.6-0.6,0-1.4-0.1-2c0.4,0,1.1,0.2,1.6-0.1
	c0.8-0.6,1.9-1.8,2.7-2.5c0,0,0.5-0.4,0.5-0.8c0-0.5-0.8-1.2-1.2-1.6l1-0.9c0,0,0.9-0.9-0.1-1.8l-2-2.1c0,0-0.3-0.4-0.9-0.5
	c-0.5-0.1-1.1,0.2-1.6,0.2l0.1-0.8C126.5,310.6,126.2,310.5,125.6,309.7L125.6,309.7z M126.7,316.4h-3.4V313h-3.3v3.4h-3.4v3.3h3.4
	v3.4h3.3v-3.4h3.4V316.4L126.7,316.4z"/>
<path class="st4" d="M338.8,625.6c0,0-7-7.2-13-13.5c-7.1-7.5-12.7-17.2-20.7-24.2c-7.6-6.7-29.4-21.1-37.2-21.2
	c0,0-0.8,0.6,3.1,5.6c0,0,25.5,27.4,26.7,34.6c0,0,6,6.1-34.7,6.6c0,0-23.6-1.6-34.2-4.2c-5.2-1.3-7.6,2.1-1.7,5.5
	c0,0,13.7,8.7,31.4,13.1c14.3,3.5,36,3,50.9,2.5c7.3-0.3,15.1-1,21.7-2.5L338.8,625.6L338.8,625.6z"/>
<path class="st4" d="M282.7,605.3c0,0-5.3-7.1-9.8-13.3c-5.4-7.4-9-16.4-15.2-23.5c-5.9-6.7-23.2-21.7-29.9-22.8c0,0-0.8,0.4,2,5.2
	c0,0,19,26.8,19.3,33.2c0,0,4.5,6-31,1.7c0,0-20.3-4.1-29.3-7.6c-4.4-1.7-6.9,1-2.1,4.6c0,0,11,9.2,25.9,15c12.1,4.7,31,6.7,44,8
	c6.4,0.6,13.2,0.9,19.2,0.3L282.7,605.3L282.7,605.3z"/>
<path class="st4" d="M232.5,573.4c0,0-4-6.4-7.4-11.9c-4.1-6.6-6.6-14.5-11.4-20.9c-4.5-6.1-10.9-18.1-16.5-19.5
	c0,0-0.7,0.3,1.4,4.6c0,0,7,22.1,6.8,27.6c0,0,3.5,5.4-26.4-0.6c0,0-17-4.9-24.4-8.4c-3.6-1.7-5.9,0.4-2.1,3.7c0,0,8.7,8.5,21,14.5
	c9.9,4.8,25.9,7.8,36.8,9.7c5.4,0.9,11.2,1.6,16.3,1.6L232.5,573.4L232.5,573.4z"/>
<path class="st4" d="M194.2,547.4c0,0-2.3-5.8-4.3-10.9c-2.3-6-3.2-12.9-6.1-18.8c-2.4-4.8-7.8-16-12.4-20.3c-3.1-2.9-4.3,0-3.5,3.2
	c0,0,8.1,21.8,7.1,26.2c0,0,2,4.9-21.5-4.5c0,0-13.2-6.5-18.6-10.6c-2.7-2-5.2,0.2-2.6,3.5c0,0,4.9,9.6,14.1,16.3
	c10.3,7.5,29.9,13,43,15.2L194.2,547.4L194.2,547.4z"/>
<path class="st4" d="M165,515.7c0,0-1.2-5.1-2.1-9.5c-1.1-5.3-1-11.1-2.6-16.4c-1.3-4.3-4.4-14.2-7.6-18.4c-2.2-2.8-3.6-0.6-3.3,2.2
	c0,0,0.5,8.9-0.2,15.5c-0.5,4.5-0.9,5.5-3.4,5.7c-5.1,0.4-14.4-5-19.4-8c0,0-10-7.1-14-11.2c-2-2-4.3-0.6-2.6,2.5
	c0,0,2.8,8.6,9.5,15.3c7.5,7.6,28.1,17.7,38.6,21.2L165,515.7L165,515.7z"/>
<path class="st4" d="M139,486.1c0,0-0.1-4.4-0.1-8.2c0-4.6,1-9.3,0.6-13.9c-0.3-3.7-1.1-12.5-2.9-16.5c-1.2-2.7-2.7-1.1-2.9,1.2
	c0,0-1.1,7.4-2.6,12.7c-1.1,3.7-1.6,4.4-3.5,4.1c-4-0.5-10.3-6.6-13.7-9.9c0,0-6.6-7.6-9.1-11.6c-1.2-2-3.3-1.2-2.4,1.6
	c0,0,0.8,7.5,4.9,14.2c4.6,7.5,18.9,19.4,26.5,24.1L139,486.1L139,486.1z"/>
<path class="st4" d="M126.4,456.4c0,0-0.1-3.7-0.1-6.8c0-3.8,0.9-7.7,0.5-11.6c-0.3-3.1-0.9-10.4-2.4-13.7c-1-2.3-2.2-0.9-2.4,1
	c0,0-0.9,6.2-2.2,10.6c-0.9,3-1.3,3.7-2.9,3.4c-3.3-0.5-8.6-5.5-11.4-8.3c0,0-5.5-6.3-7.5-9.7c-1-1.6-2.7-1-2,1.3
	c0,0,0.7,6.3,4.1,11.8c3.8,6.3,15.7,16.2,22,20.1L126.4,456.4L126.4,456.4z"/>
<path class="st4" d="M121.6,424.6c0,0,0.4-3.4,0.8-6.3c0.5-3.5,1.8-6.9,2-10.5c0.2-2.9,0.6-9.6-0.4-12.8c-0.6-2.2-1.9-1.1-2.3,0.6
	c0,0-1.6,5.5-3.4,9.4c-1.2,2.7-1.7,3.2-3.1,2.7c-3-0.9-7.1-6.2-9.3-9.1c0,0-4.2-6.5-5.6-9.8c-0.7-1.6-2.3-1.3-2,1
	c0,0-0.2,5.8,2.1,11.4c2.7,6.2,12.2,16.9,17.4,21.3L121.6,424.6L121.6,424.6z"/>
<path class="st4" d="M110.3,398.1c0,0,1.2-3.2,2.2-5.9c1.3-3.3,3.3-6.3,4.4-9.8c0.8-2.8,2.7-9.2,2.5-12.6c-0.1-2.3-1.6-1.5-2.4,0
	c0,0-2.9,5-5.5,8.4c-1.8,2.3-2.4,2.7-3.7,2c-2.7-1.5-5.5-7.7-7-10.9c0,0-2.6-7.3-3.2-10.9c-0.3-1.7-2-1.8-2.2,0.5
	c0,0-1.5,5.6-0.5,11.6c1.2,6.7,8.1,19.2,12.2,24.7L110.3,398.1L110.3,398.1z"/>
<path class="st4" d="M115.4,349.3c2.3-2.4,4.3-7.9,2-10.7c-3.1-3.8-8.4-1.2-10.9,2.8c-3.5,5.9-2.6,18,3.1,22
	c1.3,0.9,3.1,2.8,3.2,6.3c0.6-2-0.4-5.4-1-8.3C110.9,357.1,112.2,352.7,115.4,349.3L115.4,349.3z"/>
<path class="st4" d="M390.5,625.6c0,0,6.9-7.4,12.7-13.8c7-7.7,12.3-17.4,20.2-24.6c7.5-6.9,29-21.6,36.8-21.9c0,0,0.8,0.5-2.9,5.6
	c0,0-24.9,27.9-26,35.1c0,0-5.9,6.2,34.9,5.9c0,0,23.5-2.1,34.1-4.9c5.1-1.4,7.6,2,1.8,5.4c0,0-13.6,9-31.2,13.7
	c-14.3,3.8-36,3.7-50.8,3.4c-7.3-0.1-15.1-0.7-21.8-2.1L390.5,625.6L390.5,625.6z"/>
<path class="st4" d="M446.2,604.3c0,0,5.2-7.2,9.5-13.5c5.2-7.5,8.7-16.6,14.8-23.7c5.8-6.8,22.8-22.2,29.5-23.3
	c0,0,0.8,0.4-1.9,5.2c0,0-18.5,27.1-18.6,33.6c0,0-4.4,6,31,1.1c0,0,20.3-4.5,29.1-8.2c4.3-1.8,6.9,0.9,2.2,4.5
	c0,0-10.8,9.4-25.6,15.5c-12,4.9-30.9,7.3-43.9,8.8c-6.4,0.7-13.2,1.1-19.2,0.7L446.2,604.3L446.2,604.3z"/>
<path class="st4" d="M495.8,571.4c0,0,3.9-6.5,7.2-12.1c3.9-6.7,6.3-14.7,11-21.2c4.4-6.2,10.6-18.3,16.2-19.8c0,0,0.7,0.3-1.3,4.6
	c0,0-6.6,22.3-6.2,27.7c0,0-3.4,5.4,26.4-1.1c0,0,16.9-5.2,24.2-8.9c3.5-1.8,5.9,0.3,2.2,3.7c0,0-8.5,8.7-20.7,14.9
	c-9.8,5-25.7,8.3-36.6,10.4c-5.3,1-11.1,1.9-16.3,1.9L495.8,571.4L495.8,571.4z"/>
<path class="st4" d="M533.6,544.6c0,0,2.2-5.9,4-10.9c2.2-6.1,3-12.9,5.8-18.9c2.3-4.8,7.5-16.1,12-20.5c3.1-3,4.3-0.1,3.6,3.1
	c0,0-7.7,21.9-6.6,26.4c0,0-1.9,4.9,21.4-4.9c0,0,13-6.8,18.4-10.9c2.6-2,5.2,0.1,2.7,3.4c0,0-4.8,9.7-13.8,16.5
	c-10.1,7.7-29.6,13.6-42.7,16L533.6,544.6L533.6,544.6z"/>
<path class="st4" d="M562.2,512.4c0,0,1.1-5.1,1.9-9.6c1-5.3,0.8-11.1,2.3-16.4c1.2-4.3,4.1-14.3,7.3-18.5c2.1-2.9,3.6-0.6,3.3,2.1
	c0,0-0.3,9,0.5,15.5c0.5,4.5,1,5.5,3.5,5.6c5.1,0.3,14.3-5.3,19.2-8.3c0,0,9.9-7.3,13.8-11.4c1.9-2,4.3-0.6,2.7,2.5
	c0,0-2.7,8.6-9.2,15.5c-7.4,7.7-27.8,18.2-38.2,21.9L562.2,512.4L562.2,512.4z"/>
<path class="st4" d="M587.6,482.3c0,0,0-4.4-0.1-8.2c-0.1-4.6-1.2-9.2-0.9-13.9c0.3-3.8,0.9-12.5,2.6-16.5c1.2-2.7,2.7-1.1,2.9,1.2
	c0,0,1.2,7.4,2.9,12.7c1.2,3.6,1.7,4.4,3.6,4c4-0.6,10.2-6.8,13.5-10.2c0,0,6.5-7.7,8.8-11.8c1.2-2,3.2-1.3,2.5,1.6
	c0,0-0.7,7.5-4.6,14.3c-4.5,7.6-18.5,19.8-26,24.6L587.6,482.3L587.6,482.3z"/>
<path class="st4" d="M599.6,452.4c0,0,0-3.7-0.1-6.8c-0.1-3.8-1-7.7-0.7-11.6c0.2-3.1,0.7-10.4,2.2-13.7c1-2.3,2.2-1,2.4,1
	c0,0,1,6.2,2.4,10.5c1,3,1.4,3.6,3,3.4c3.3-0.5,8.5-5.7,11.2-8.5c0,0,5.4-6.4,7.4-9.8c1-1.6,2.7-1.1,2.1,1.3c0,0-0.6,6.3-3.9,11.9
	c-3.7,6.3-15.4,16.5-21.6,20.5L599.6,452.4L599.6,452.4z"/>
<path class="st4" d="M603.8,420.5c0,0-0.5-3.4-1-6.2c-0.6-3.5-2-6.9-2.2-10.5c-0.2-2.9-0.7-9.6,0.1-12.9c0.6-2.2,1.9-1.2,2.4,0.6
	c0,0,1.7,5.5,3.6,9.3c1.3,2.6,1.7,3.1,3.2,2.7c3-0.9,7-6.3,9.1-9.3c0,0,4.1-6.6,5.4-10c0.7-1.6,2.3-1.3,2.1,0.9
	c0,0,0.3,5.8-1.9,11.4c-2.5,6.3-11.9,17.1-17,21.6L603.8,420.5L603.8,420.5z"/>
<path class="st4" d="M614.6,393.7c0,0-1.3-3.2-2.4-5.9c-1.3-3.2-3.5-6.3-4.5-9.7c-0.9-2.8-2.9-9.2-2.8-12.5c0.1-2.3,1.6-1.6,2.4,0
	c0,0,2.9,5,5.6,8.3c1.9,2.3,2.4,2.6,3.7,1.9c2.7-1.6,5.4-7.8,6.8-11.1c0,0,2.5-7.4,3-10.9c0.3-1.7,2-1.8,2.2,0.4
	c0,0,1.6,5.6,0.7,11.6c-1,6.7-7.7,19.3-11.7,24.9L614.6,393.7L614.6,393.7z"/>
<path class="st4" d="M606.6,348.9c-2.4-2.3-4.5-7.8-2.2-10.7c3.1-3.9,8.4-1.4,10.9,2.6c3.7,5.8,2.9,18-2.7,22.1c-1.3,1-3,2.9-3,6.4
	c-0.6-2,0.3-5.4,0.9-8.4C611.3,356.5,609.9,352.2,606.6,348.9L606.6,348.9z"/>
<path class="st4" d="M348.6,616.9c-0.5,0.2-1,0.3-1.3,0.3c-0.2,0-0.3-0.1-0.3-0.3v-0.4c0-0.1,0-0.2,0.1-0.3c0.1-0.1,0.2-0.1,0.4-0.2
	c0.3-0.1,0.7-0.4,1.2-0.7c0.5-0.4,1-0.8,1.4-1.4c0.4-0.5,0.6-0.7,0.6-0.8c0.1,0,0.2-0.1,0.3-0.1h0.7v12.7c0,0.1,0.1,0.2,0.3,0.3
	c0.2,0.1,0.3,0.2,0.3,0.3c0,0.1,0.1,0.3,0.1,0.7c0,0.2-0.1,0.2-0.3,0.2h-4c-0.2,0-0.3,0-0.3-0.1c0-0.1-0.1-0.2-0.1-0.4
	c0-0.3,0-0.5,0-0.5c0-0.1,0.2-0.1,0.4-0.2c0.3-0.1,0.5-0.2,0.5-0.4V616.9L348.6,616.9z M359.4,622.7c-0.5,0.6-1.1,0.9-1.7,0.9
	c-0.8,0-1.5-0.4-2-1.2c-0.6-0.8-0.9-2-0.9-3.5c0-0.9,0.1-1.7,0.4-2.6c0.3-0.9,0.7-1.6,1.3-2.2c0.6-0.6,1.4-0.9,2.4-0.9
	c1.2,0,2.2,0.5,3,1.5c0.7,1,1.1,2.7,1.1,5.2c0,2.8-0.6,4.7-1.8,5.9c-1.2,1.2-2.7,1.8-4.6,1.8c-0.3,0-0.6,0-0.6-0.1
	c-0.1,0-0.1-0.2-0.1-0.4c0-0.3,0-0.5,0.1-0.6c0-0.1,0.1-0.1,0.2-0.1c0.9-0.1,1.5-0.2,2-0.4c0.5-0.2,0.8-0.5,1.1-0.9
	c0.3-0.4,0.4-1,0.4-1.7C359.5,623.1,359.4,622.9,359.4,622.7L359.4,622.7z M359.4,614.9c0-0.5-0.2-0.8-0.6-0.8
	c-0.4,0-0.6,0.3-0.6,0.8v6.3c0,0.2,0.1,0.4,0.2,0.6c0.1,0.1,0.3,0.2,0.4,0.2c0.2,0,0.4-0.1,0.5-0.3c0.1-0.2,0.2-0.4,0.2-0.7V614.9
	L359.4,614.9z M365.9,616.9c-0.5,0.2-1,0.3-1.3,0.3c-0.2,0-0.3-0.1-0.3-0.3v-0.4c0-0.1,0-0.2,0.1-0.3c0.1-0.1,0.2-0.1,0.4-0.2
	c0.3-0.1,0.7-0.4,1.2-0.7c0.5-0.4,1-0.8,1.4-1.4c0.4-0.5,0.6-0.7,0.6-0.8c0.1,0,0.2-0.1,0.3-0.1h0.7v12.7c0,0.1,0.1,0.2,0.3,0.3
	c0.2,0.1,0.3,0.2,0.3,0.3c0,0.1,0.1,0.3,0.1,0.7c0,0.2-0.1,0.2-0.3,0.2h-4c-0.2,0-0.3,0-0.3-0.1c0-0.1-0.1-0.2-0.1-0.4
	c0-0.3,0-0.5,0-0.5c0-0.1,0.2-0.1,0.4-0.2c0.3-0.1,0.5-0.2,0.5-0.4V616.9L365.9,616.9z M378,616h-3.7c-0.3,0-0.5,0.2-0.7,0.6
	c-0.1,0.2-0.2,0.3-0.2,0.4c-0.1,0.1-0.3,0.1-0.9,0.1c-0.2,0-0.3-0.1-0.3-0.2v-0.1l0.3-3c0-0.2,0.1-0.4,0.1-0.5
	c0.1-0.1,0.2-0.1,0.5-0.1h6.7c0.1,0,0.2,0,0.2,0c0,0,0,0.1,0,0.2v0.4c0,0.2-0.1,0.4-0.2,0.7c-0.4,0.8-0.9,2.1-1.4,3.9
	c-0.6,1.8-0.8,3.7-0.8,5.8c0,0.9,0,1.4,0.1,1.5c0.1,0.2,0.2,0.3,0.4,0.4c0.1,0.1,0.2,0.2,0.2,0.5c0,0.3,0,0.5,0,0.5
	c0,0-0.1,0.1-0.3,0.1h-3.7c-0.1,0-0.2,0-0.3-0.1c0,0-0.1-0.2-0.1-0.4c0-0.3,0-0.4,0-0.5c0-0.1,0.1-0.1,0.3-0.2
	c0.1-0.1,0.2-0.1,0.2-0.2c0-0.1,0-0.3,0-0.5c0-0.8,0.2-1.8,0.5-3.1c0.4-1.3,0.9-2.5,1.5-3.7L378,616L378,616z"/>
<path class="st3" d="M56.9,399.3l0.7,4l-3.4,1.2c1.1,0.5,2.1,1.3,3,2.6c0.9,1.2,1.5,2.7,1.7,4.2c0.6,3.3-0.6,6.6-3.4,9.7
	c-2.8,3.1-7.9,5.2-15.1,6.3c-7.9,1.2-14,0.9-18.3-0.9c-4.3-1.8-6.7-4.8-7.4-8.9c-0.6-3.6,0.3-6.7,2.8-9.2c2.5-2.5,6-4.1,10.6-4.8
	l0.9,5.2c-3.5,0.5-6.1,1.5-7.7,2.8c-1.6,1.4-2.2,3.1-1.8,5.1c0.4,2.5,2.1,4.2,5.1,5.1c3,0.9,7.8,0.8,14.3-0.2
	c6.2-0.9,10.4-2.4,12.5-4.3c2.1-1.9,3-3.9,2.6-6c-0.3-2.1-1.4-3.6-3.2-4.5c-1.8-0.9-4.4-1.2-7.7-0.7l-2.8,0.4l1.2,7.4l-4.8,0.7
	l-2-12.1L56.9,399.3L56.9,399.3z M41.2,362.5c4.1-0.1,7.3,0.9,9.8,2.8c2.4,2,3.7,5.1,3.8,9.5c0.1,4.3-1,7.5-3.4,9.6
	c-2.3,2-5.6,3.1-9.7,3.2l-30.9,0.5l-0.1-5.5l30.9-0.5c2.9,0,5-0.7,6.3-2c1.3-1.3,2-3,2-5.1c0-2.1-0.8-3.8-2.1-5
	c-1.4-1.3-3.5-1.9-6.4-1.8l-30.9,0.5l-0.1-5.5L41.2,362.5L41.2,362.5z M56.6,322.8l-0.5,5.8l-13.8,2.1l-1,10.9l13.2,4.3l-0.5,5.8
	L11,336l0.4-4.8L56.6,322.8L56.6,322.8z M37.3,331.5l-15.9,2.7l0,0.3l15.2,5.3L37.3,331.5L37.3,331.5z M62.2,288.8l-1.1,5.9
	l-33.6,7.9l0,0.2l31.2,5.2l-1,5.5l-43-7.1l1.1-5.9l33.6-7.9l0-0.2l-31.2-5.2l1-5.5L62.2,288.8L62.2,288.8z M73.9,253.4l-1.3,3.9
	l-3.6-0.3c0.8,0.9,1.2,2.1,1.4,3.6c0.2,1.5,0,3-0.5,4.5c-1.1,3.2-3.7,5.6-7.7,7.1c-4,1.6-9.5,1.3-16.5-0.9
	c-7.6-2.3-12.9-5.2-15.8-8.6c-2.9-3.4-3.7-7.1-2.4-11.1c1.2-3.5,3.5-5.8,7-7c3.4-1.1,7.3-1,11.7,0.3l-1.7,5c-3.4-1-6.1-1.3-8.2-0.7
	c-2.1,0.5-3.4,1.8-4.1,3.8c-0.8,2.4-0.1,4.7,2.1,6.7c2.3,2,6.5,4,12.9,6c6,1.8,10.4,2.3,13.2,1.5c2.8-0.8,4.5-2.2,5.2-4.2
	c0.7-2,0.5-3.8-0.7-5.4c-1.1-1.6-3.3-2.9-6.6-3.9l-2.7-0.8l-2.4,7.1l-4.6-1.4l4-11.7L73.9,253.4L73.9,253.4z M82.9,186.7
	c6.8,3.6,10.9,7.5,12.2,11.7c1.3,4.3,0.6,8.7-2.1,13.3l-4.2,7.2l-38.2-20l4.2-7.2c3.1-5.2,6.8-8.2,11.2-9.1
	C70.4,181.8,76.1,183.2,82.9,186.7L82.9,186.7z M79.9,191.8c-5.5-2.9-9.9-4.1-13.1-3.5c-3.2,0.5-5.8,2.5-7.8,5.8l-1.4,2.3l29.7,15.5
	l1.4-2.3c2-3.4,2.4-6.5,1.2-9.3C88.8,197.5,85.5,194.7,79.9,191.8L79.9,191.8z M107.1,153.4c6.4,4.5,10.2,8.7,11.5,12.6
	c1.3,3.8,0.6,7.4-2,10.8c-2.7,3.3-6.2,5-10.5,4.9c-4.3-0.1-9.7-2.3-16.1-6.9c-6.4-4.5-10.2-8.7-11.4-12.6c-1.2-3.9-0.4-7.4,2.2-10.8
	c2.7-3.3,6.1-5,10.3-4.9C95.4,146.5,100.7,148.8,107.1,153.4L107.1,153.4z M103.4,158c-5.7-4.1-9.9-6.1-12.6-6.2
	c-2.7-0.1-4.7,0.7-6,2.3c-1.3,1.7-1.6,3.7-0.8,6.2c0.8,2.5,4,5.7,9.8,9.8c5.7,4.1,10,6.1,12.8,6.2c2.8,0.1,4.9-0.7,6.2-2.4
	c1.3-1.7,1.5-3.7,0.6-6.2C112.4,165.3,109.1,162.1,103.4,158L103.4,158z M150,138.8l-4.4,4.4l-32.7-10.7l-0.2,0.2l23.2,20.3l-4,4
	l-31.9-28.1l4.4-4.4l32.7,10.7l0.2-0.2L114,114.8l4-4L150,138.8L150,138.8z M180,114.8l-3.4,2.6l-2.9-2.2c0.1,1.2-0.2,2.4-0.9,3.8
	c-0.7,1.4-1.7,2.5-3,3.5c-2.8,2.1-6.3,2.8-10.6,2c-4.3-0.8-8.7-3.8-13.3-9.2c-5-5.9-7.8-11-8.3-15.4c-0.5-4.4,1-7.9,4.4-10.5
	c3-2.3,6.3-3.1,9.9-2.3c3.5,0.8,6.8,2.9,9.7,6.3l-4.4,3.3c-2.2-2.6-4.4-4.2-6.5-4.8c-2-0.6-3.9-0.3-5.7,1.1
	c-2.1,1.6-2.8,3.9-2.1,6.7c0.7,2.9,3.2,6.7,7.3,11.6c4,4.6,7.4,7.3,10.2,8c2.8,0.7,5.1,0.4,6.8-0.9c1.7-1.3,2.6-2.9,2.5-4.9
	c0-1.9-1.1-4.2-3.2-6.7l-1.8-2.1l-6.1,4.7l-3.1-3.6l10.1-7.7L180,114.8L180,114.8z M235.3,80.8l-4.5,2.3l-14.6-25.9l-0.5,0.2
	l9.2,28.6l-3.6,1.8l-20-23.2l-0.5,0.2l14.6,25.9l-4.5,2.3l-20.5-36.3l7-3.5l18.5,21.5l0.5-0.2L207.8,48l7-3.5L235.3,80.8L235.3,80.8
	z M271.7,67.7l-24.6,8l-14.2-38.9l23.4-7.6l1.6,4.3L240,39.3l4.4,12.1l16.4-5.3l1.6,4.3L246,55.7l5.1,13.9l19.1-6.2L271.7,67.7
	L271.7,67.7z M305.3,38.2c1.8,7.2,1.4,12.7-1.1,16.4c-2.5,3.8-6.5,6.2-11.9,7.4l-8.5,1.8L274,23.7l8.5-1.8c6.1-1.3,11-0.8,14.7,1.7
	C300.8,26.1,303.6,31,305.3,38.2L305.3,38.2z M299.3,39.5c-1.4-5.8-3.4-9.6-6-11.6c-2.6-1.9-5.8-2.4-9.8-1.6l-2.7,0.6l7.6,31.2
	l2.7-0.6c4-0.9,6.7-2.6,8.1-5.4C300.7,49.5,300.8,45.3,299.3,39.5L299.3,39.5z M338,54.6l-5.9,0.4l-3-41.1l5.9-0.4L338,54.6
	L338,54.6z M389.2,37.5c-0.3,6.1-1.7,10.4-4.3,12.9c-2.6,2.5-5.7,3.8-9.3,3.7c-4.1-0.1-7.5-1.7-10.4-4.9c-2.8-3.2-4.2-8.2-4.1-15.1
	c0.1-7.5,1.6-13.1,4.5-16.8c2.9-3.6,6.5-5.4,11-5.4c3.7,0.1,6.8,1.4,9.3,4.1c2.4,2.7,3.5,6.4,3.2,11.3l-5.6-0.1
	c0.1-3.5-0.5-6.2-1.6-8c-1.2-1.8-2.9-2.7-5.3-2.7c-2.7,0-4.9,1.2-6.6,3.9c-1.7,2.6-2.6,7.1-2.7,13.3c-0.1,5.8,0.6,9.8,2.2,12.2
	c1.6,2.4,3.6,3.6,6.2,3.6c1.9,0,3.6-0.8,5.1-2.4c1.6-1.7,2.4-4.9,2.5-9.7L389.2,37.5L389.2,37.5z M428.8,60.4l-6-1l-1-13.1
	l-11.5-1.9l-5.7,12l-6-1l20.2-38.9l5,0.8L428.8,60.4L428.8,60.4z M421.3,41.6l-1.5-15.2l-0.4-0.1l-6.9,13.8L421.3,41.6L421.3,41.6z
	 M465.1,69.8l-25.5-6.9l12-39.6l5.6,1.5L446.5,60l19.9,5.4L465.1,69.8L465.1,69.8z M525.2,99.1l-5.2-3l4.1-12.6l-10-5.7l-9.9,9.3
	l-5.2-3l33.7-29.5l4.4,2.5L525.2,99.1L525.2,99.1z M525.3,79l4.4-14.6l-0.3-0.2l-11.7,10.5L525.3,79L525.3,79z M562.8,110.1
	c-2.3,3-5.1,4.7-8.5,5.1c-3.3,0.4-6.7-0.6-10.2-3c-3.4-2.4-5.4-5.1-6-8.2c-0.5-3.1,0.3-6.1,2.4-8.8l1.1-1.4l4.8,3.3l-0.9,1.2
	c-1.5,1.9-2,3.9-1.6,5.8c0.4,1.9,1.5,3.4,3.1,4.5c2.2,1.5,4.2,2.1,6.1,1.7c1.9-0.4,3.4-1.4,4.6-2.9c1-1.3,1.3-2.9,0.9-4.9
	c-0.4-2-1.4-4.2-3-6.7c-2.4-3.4-3.8-6.4-4.1-8.8c-0.3-2.4,0.2-4.6,1.7-6.6c2.1-2.7,4.8-4.2,8.1-4.6c3.3-0.3,6.3,0.5,9.1,2.3
	c3.6,2.5,5.4,5.2,5.4,8.3c0,3.1-0.8,5.8-2.7,8.2l-4.8-3.3c1.2-1.3,1.8-2.9,1.8-4.7c-0.1-1.8-1-3.4-2.8-4.6c-1.7-1.1-3.3-1.6-4.9-1.4
	c-1.6,0.2-3,1-4.1,2.4c-0.9,1.2-1.3,2.4-1.2,3.8c0.1,1.4,1.3,3.7,3.6,7.1c2.1,3.2,3.4,6.2,3.8,9C565,105.6,564.4,108,562.8,110.1
	L562.8,110.1z M592.7,137.5c-2.8,2.6-5.8,3.9-9.2,3.7c-3.4-0.1-6.6-1.6-9.6-4.4c-3-2.8-4.5-5.8-4.5-9c0-3.2,1.3-6,3.8-8.3l1.3-1.2
	l4.2,3.9l-1.1,1c-1.8,1.7-2.7,3.5-2.5,5.4c0.1,1.9,0.9,3.6,2.3,4.9c1.9,1.8,3.9,2.7,5.8,2.6c1.9-0.1,3.6-0.9,5.1-2.2
	c1.2-1.1,1.8-2.7,1.7-4.7c-0.1-2-0.7-4.3-1.9-7.1c-1.8-3.7-2.7-6.8-2.6-9.3c0.1-2.4,1-4.5,2.8-6.2c2.5-2.4,5.4-3.5,8.8-3.3
	c3.3,0.2,6.2,1.4,8.6,3.7c3.1,2.9,4.5,6,4,9c-0.5,3.1-1.8,5.6-4,7.7l-4.2-3.9c1.4-1.1,2.3-2.6,2.5-4.4c0.2-1.8-0.4-3.5-2-4.9
	c-1.4-1.4-3-2.1-4.6-2.1c-1.6-0.1-3.1,0.5-4.4,1.8c-1.1,1-1.7,2.2-1.8,3.6c-0.1,1.4,0.7,3.9,2.3,7.5c1.6,3.5,2.3,6.7,2.3,9.4
	C595.7,133.4,594.7,135.7,592.7,137.5L592.7,137.5z M626.8,161c-6.1,4.9-11.3,7.4-15.6,7.8c-4.3,0.3-7.8-1.1-10.7-4.3
	c-2.9-3.2-3.8-6.8-2.7-10.7c1-4,4.6-8.4,10.7-13.2c6.1-4.8,11.3-7.4,15.6-7.6c4.3-0.2,7.8,1.3,10.6,4.5c2.8,3.2,3.8,6.7,2.7,10.6
	C636.6,151.8,633,156.1,626.8,161L626.8,161z M622.9,156.5c5.5-4.3,8.6-7.7,9.3-10.2c0.7-2.4,0.4-4.5-1.1-6.1
	c-1.4-1.6-3.5-2.3-6.2-2.1c-2.7,0.2-6.8,2.4-12.3,6.8c-5.5,4.3-8.6,7.8-9.3,10.3c-0.7,2.6-0.4,4.6,1,6.2c1.4,1.6,3.5,2.3,6.3,2
	C613.3,163.2,617.4,160.9,622.9,156.5L622.9,156.5z M645.7,197.2c-5.6,3.1-10.2,4.3-13.9,3.6c-3.7-0.7-6.4-2.5-8.3-5.3
	c-2.2-3.3-2.6-6.9-1.3-10.9c1.3-4,5-7.8,11.2-11.4c6.8-4,12.6-5.8,17.4-5.6c4.8,0.3,8.4,2.2,10.7,5.7c2,3,2.4,6.2,1.4,9.6
	c-1.1,3.4-3.8,6.3-8.2,8.7l-3-4.5c3.2-1.9,5.2-3.8,6.2-5.6c1-1.9,0.8-3.8-0.5-5.7c-1.4-2.2-3.8-3.2-7-3.1c-3.2,0.1-7.7,1.8-13.3,5.1
	c-5.2,3.1-8.4,5.9-9.7,8.4c-1.2,2.5-1.2,4.8,0.2,6.9c1,1.5,2.7,2.4,5,2.7c2.3,0.3,5.7-0.8,10-3.3L645.7,197.2L645.7,197.2z
	 M642.8,229.2l-2.6-5l39.3-18l2.6,5L642.8,229.2L642.8,229.2z M661.3,275.3l-1.9-5.5l11.8-7l-3.6-10.4l-13.9,0.9l-1.9-5.5l46-1.4
	l1.6,4.6L661.3,275.3L661.3,275.3z M675.4,260.2l13.5-8.3l-0.1-0.3l-16.1,0.7L675.4,260.2L675.4,260.2z M707,300.9l-2.3-9.4
	l-37.8,8.2l-1.3-5.4l37.8-8.2l-2.3-9.4l4.7-1l5.9,24.2L707,300.9L707,300.9z M672.1,336.6l-0.5-5.5l43.5-3.6l0.5,5.5L672.1,336.6
	L672.1,336.6z M694.5,384.7c-8-0.1-13.7-1.4-17.2-3.8c-3.5-2.4-5.1-5.7-5.1-9.8c0.1-4.2,1.9-7.4,5.4-9.8c3.5-2.4,9.3-3.5,17.3-3.3
	c8,0.1,13.7,1.4,17,3.9c3.4,2.5,5,5.8,4.9,10c-0.1,4.2-1.8,7.4-5.3,9.7C708.3,383.8,702.5,384.9,694.5,384.7L694.5,384.7z
	 M694.6,378.9c7.1,0.1,11.8-0.5,14.1-1.9c2.2-1.4,3.4-3.1,3.4-5.2c0-2.1-1-3.9-3.2-5.5c-2.2-1.6-6.9-2.4-14-2.5
	c-7.2-0.1-11.9,0.6-14.2,2.1c-2.3,1.5-3.5,3.3-3.6,5.4c0,2.1,1.1,3.9,3.4,5.3C682.8,378,687.5,378.8,694.6,378.9L694.6,378.9z
	 M667.2,420.2l1-5.9l33.5-8.4l0-0.2l-31.3-4.7l0.9-5.5l43.1,6.4l-1,5.9l-33.5,8.4l0,0.2l31.3,4.7l-0.9,5.5L667.2,420.2L667.2,420.2z
	"/>
<path class="st2" d="M231.7,353.5h31v2.3h-7.1c0,7.3-2.6,12.9-7.8,16.8c-5.2,3.9-12.7,5.9-22.3,5.9c-10.3,0-18.5-3.1-24.7-9.2
	c-6.2-6.2-9.3-14.4-9.3-24.7c0-4.9,0.9-9.4,2.6-13.7c1.8-4.3,4.3-8.1,7.7-11.5c3.3-3.4,7-5.9,11.2-7.6c4.2-1.7,8.6-2.5,13.4-2.5
	c3.6,0,7.1,0.5,10.4,1.4c3.3,0.9,6.2,2.3,8.9,4.1l4.3-3.6h1.7V328h-2.5c-1.4-5.1-4.1-9.1-7.9-12c-3.9-2.9-8.6-4.3-14.2-4.3
	c-7.7,0-13.3,2.7-16.8,8c-3.5,5.3-5.3,13.7-5.3,25.1c0,11.1,1.6,19.1,4.7,23.9c3.1,4.8,8.3,7.2,15.5,7.2c6.3,0,10.8-1.4,13.5-4.1
	c2.7-2.7,4.1-7.3,4.1-13.7v-2.3h-11V353.5L231.7,353.5z M295.7,312.9v61.4h8.4c3.9,0,7.4-0.4,10.4-1.1c3-0.7,5.4-1.8,7.4-3.1
	c2.8-2,4.7-4.7,5.9-8.1c1.1-3.4,1.7-9.6,1.7-18.6c0-8-0.5-13.7-1.5-17.1c-1-3.4-2.6-6.2-5-8.2c-2.1-1.8-4.7-3.1-7.9-3.9
	c-3.1-0.8-7.2-1.2-12-1.2H295.7L295.7,312.9z M283.9,374.3v-61.4h-8.8v-2.5h28.4c12.4,0,22,2.8,28.7,8.4c6.7,5.6,10.1,13.6,10.1,24
	c0,6.1-1.2,11.6-3.7,16.5c-2.5,4.8-6.1,8.8-11,12.1c-2.8,1.8-6,3.2-9.7,4.1c-3.7,0.9-8.1,1.3-13.3,1.3h-29.6v-2.5H283.9L283.9,374.3
	z M358.9,376.8v-2.5h8.6v-61.4h-8.6v-2.5h23.4l16.4,49.1l17.5-49.1h22.9v2.5H430v61.4h9.1v2.5h-29v-2.5h8.7v-60.5h-0.5l-22.5,63
	h-2.9l-20.9-63h-0.9v60.5h8.8v2.5H358.9L358.9,376.8z M473.8,350h20.3l-9.8-26.6L473.8,350L473.8,350z M451.4,376.8v-2.5h9.2
	l26.5-65.6h2.9l24.7,65.6h8.1v2.5h-29.6v-2.5h9.6l-7.8-21.3h-22.5l-8.3,21.3h9.8v2.5H451.4L451.4,376.8z"/>
<polygon class="st1" points="323.3,454.1 397.8,454.1 397.8,501.2 323.3,501.2 323.3,454.1 "/>
<path class="st5" d="M338.4,433.7l7.5-9.8c1.7-2.2,3.8-4.9,6.4-5.1c3.4-0.2,7.8,5.1,10.2,7.4c3.7-4.1,7.5-12,13.9-6.1l13.9,13.9
	c4.4,4.4,0.6,9.1,0.2,12.8c6.7-1.8,7.6-1.6,14,4.1c4.4,4,10.4,9.9,15.3,14.2c0,0,3.2,2.7,0.7,6.4l-6.7,7.7l5.4,5.4
	c0,0,4.2,3.7,0.3,7.9l-13.6,14.2c-1.7,1.7-3.4,3.7-5.7,4.1c-2,0.4-5.9-1.3-8.2-1.9c-0.3,1.3,2.1,3.7,0.5,7c-3.6,5-10.7,12.4-16,18.4
	c-2.4,2.7-4.5,4.5-8.2,1.6l-5.8-5.1c-2.2,2.9-4.9,8.5-9,8.9c-1.9,0.2-4.7-0.5-6.4-2.6l-13.4-14.5c-3.3-3.6,0.3-8.4,0.9-12
	c-2.4,0.3-6.5,1.3-9.4-0.7c-5-3.4-11.5-10.7-16.3-15c0,0-2.7-2.2-2.8-5c-0.1-2.9,5-7.2,7-9.5l-6.2-5.3c0,0-5.5-5.3,0.7-10.9
	l12.1-12.4c0,0,1.9-2.5,5.4-3.1c2.8-0.5,6.7,1,9.8,1.3l-0.6-4.9C333.4,438.6,334.9,438.4,338.4,433.7L338.4,433.7z M333,471.1h20
	v-20h19.5v20h20v19.5h-20v20H353v-20h-20V471.1L333,471.1z"/>
</svg>