<!-- Generator: Adobe Illustrator 21.0.0, SVG Export Plug-In  -->
<svg version="1.1"
	 xmlns="http://www.w3.org/2000/svg" xmlns:xlink="http://www.w3.org/1999/xlink" xmlns:a="http://ns.adobe.com/AdobeSVGViewerExtensions/3.0/"
	 x="0px" y="0px" width="491.9px" height="134.1px" viewBox="0 0 491.9 134.1"
	 style="overflow:scroll;enable-background:new 0 0 491.9 134.1;" xml:space="preserve">
<style type="text/css">
	.st0{fill-rule:evenodd;clip-rule:evenodd;fill:#6C9DB7;}
	.st1{fill:#6C9DB7;}
	.st2{clip-path:url(#SVGID_2_);fill:#6C9DB7;}
	.st3{clip-path:url(#SVGID_4_);fill:#6C9DB7;}
</style>
<defs>
</defs>
<path class="st0" d="M37,62.9h7.4c1.6,10.1,5.9,18.5,10,27.4C43.5,81,38.5,71.6,37,62.9 M28,121.4l1.3-17.4H11.8
	c-7,0-12.3-5.7-11.8-12.7l1.2-15.6c0.5-7,6.7-12.7,13.7-12.7h8.7h7.7c2.4,12.4,12.5,25.9,39,41.4c-8.1-18.5-4.7-30.8-1.2-41.4h16.9
	h4.8c7,0,12.3,5.7,11.8,12.7l-1.2,15.6c-0.5,7-6.7,12.7-13.7,12.7H70.3L69,121.4c-0.5,7-6.7,12.7-13.7,12.7H39.8
	C32.7,134.1,27.4,128.4,28,121.4z"/>
<path class="st0" d="M60.5,26.1c10.1,9.5,11.8,24.4,8.8,36.6C70.4,47.1,68.7,38.3,60.5,26.1 M45,10.1c-2,17-17.4,33.5-13.7,52.9H37
	C33.6,43.6,47.1,28,50.5,25.4c-6.7,15.6-7.7,27.4-6.1,37.5h24.7C74.4,46.7,79.9,34.3,45,10.1z"/>
<path class="st1" d="M232.3,108.3c0.2,0.4,0.4,0.9,0.6,1.4c0.2,0.5,0.4,1.1,0.5,1.6c-0.7,0.2-1.4,0.4-2,0.5
	c-0.4-1.5-0.8-2.5-1.1-2.9C231,108.7,231.7,108.5,232.3,108.3 M238.7,121.8c-1-0.1-3.3-0.1-6.7-0.1c-3.4,0-5.9,0-7.5,0.1l0.1-1.9
	c1.5,0.1,4,0.1,7.5,0.1c3.5,0,5.8,0,6.7-0.1L238.7,121.8z M239,117.9c-1.2-0.1-3.5-0.1-6.8-0.1c-3.3,0-5.8,0-7.4,0.1l0.1-1.9
	c1.4,0.1,3.8,0.1,7.1,0.1c3.4,0,5.8,0,7.1-0.1L239,117.9z M240.9,114c-1.5-0.1-4.4-0.1-8.7-0.1c-4.3,0-7.3,0-8.8,0.1l0.1-1.9h17.5
	L240.9,114z M235.8,129.5l0.3-3.7h-9.5l-0.3,3.7H235.8z M223.9,109.2c-0.5,0.4-1.3,1.9-2.4,4.4l-1.1,15.1c-0.2,2.2-0.3,3.9-0.3,5.2
	h-2.4c0.3-1.3,0.6-3.1,0.7-5.3l0.8-11.1c-1,1.8-2,3.2-2.9,4.4c-0.4-0.7-0.9-1.3-1.5-1.8c0.9-0.9,2-2.4,3.3-4.7
	c1.3-2.2,2.4-4.6,3.2-7.1C222.1,108.7,223,109,223.9,109.2z M238.3,124.2c-0.1,0.9-0.3,2.3-0.4,4.4c-0.1,2-0.2,3.5-0.2,4.5h-2.1
	l0.1-1.9h-9.5l-0.2,2.3h-2.2c0.2-1.1,0.3-2.6,0.5-4.6c0.2-2.1,0.2-3.6,0.2-4.7H238.3z M205.7,110.1c1.8,0,3.5,0,4.8-0.1l-0.2,2.1
	c-1.4-0.1-3-0.1-4.9-0.1H199c-0.2,0.7-0.6,2.1-1.2,4.1H208c-0.1,1-0.3,2.2-0.4,3.5l-0.8,11.1c-0.1,1.2-0.5,1.9-1.3,2.2
	c-0.8,0.3-1.7,0.6-2.8,0.8c-0.2-0.8-0.6-1.7-1.1-2.5c1.2,0,2-0.1,2.4-0.2c0.5-0.1,0.7-0.6,0.8-1.3l0.9-11.7h-4.1l-1,12.7h-2.1
	l1-12.7h-4l-1,12.9h-2.1l1-12.9h-4.3L188,133h-2.2c0.2-1.3,0.3-2.8,0.4-4.4l0.6-8.6c0.1-1.5,0.2-2.9,0.2-4h8.7
	c0.2-0.9,0.6-2.2,1.1-4.1h-7c-1.5,0-2.9,0-4.4,0.1l0-2.1c1.3,0.1,2.8,0.1,4.5,0.1H205.7z M173.4,124.1l0.1-1.5h-5.9l-0.1,1.5H173.4z
	 M173.1,127.5l0.1-1.7h-5.9l-0.1,1.7H173.1z M165.9,117.6l0.2-2.2h-5.6l-0.2,2.2H165.9z M173.7,117.6l0.2-2.2h-5.7l-0.2,2.2H173.7z
	 M175.5,124.1c1.1,0,2.3,0,3.6-0.1l-0.1,2c-0.7-0.1-1.9-0.1-3.6-0.1c-0.1,1.9-0.2,3.4-0.2,4.5h-2.2l0.1-1.1h-5.9l-0.2,2.1
	c-0.1,0.9-0.5,1.5-1.1,1.8c-0.6,0.3-1.7,0.5-3.3,0.8c-0.1-0.7-0.4-1.5-0.9-2.4c1.3,0,2.2,0,2.6-0.1c0.4-0.1,0.7-0.3,0.7-0.7l0.1-1.4
	h-6.2c-0.8,0-1.8,0-2.9,0.1l0.1-2c1.1,0.1,2,0.1,2.9,0.1h6.2l0.1-1.7h-8.3c-1,0-1.9,0-2.8,0.1l0.1-2c0.9,0.1,1.8,0.1,2.7,0.1h8.3
	l0.1-1.5h-6.4c-0.8,0-1.7,0-2.6,0.1l0.1-2c0.9,0.1,1.8,0.1,2.6,0.1h6.4l0.1-1.4h-7.7c0.2-1.1,0.3-2.1,0.3-3c0.1-1,0.1-1.9,0.1-2.8
	h7.7l0.1-1.5h-7.8c-1.2,0-2.3,0-3.3,0.1l0.1-2c1,0.1,2.1,0.1,3.2,0.1h7.9c0-0.5,0.1-1.2,0-2h2.2c-0.1,0.6-0.2,1.2-0.3,2h7.5
	c1.2,0,2.5,0,3.9-0.1l-0.1,2c-1.3-0.1-2.6-0.1-3.8-0.1h-7.5l-0.1,1.5h7.9c-0.1,0.9-0.2,1.8-0.3,2.8c-0.1,1-0.1,1.9-0.1,3h-7.9
	l-0.1,1.4h8.1C175.7,121.5,175.6,122.6,175.5,124.1z M129.9,127.1l0.2-3.3h-2.8l-0.2,3.3H129.9z M140.2,116.1
	c0.4,2.1,0.8,3.9,1.3,5.6c0.5,1.7,0.9,2.9,1.2,3.5c0.5-1.5,0.9-2.9,1.3-4.2c0.4-1.4,0.8-3.4,1.2-6.2h-4.4L140.2,116.1z M128.2,111.7
	c0.1-1.5,0.2-2.5,0.1-3.1h2.2c-0.2,0.6-0.3,1.6-0.5,3.1h3c0.1-1.1,0.1-2.1,0.1-3.1h2.2c-0.2,0.7-0.3,1.7-0.5,3.1
	c1.2,0,2.4,0,3.5-0.1l-0.1,2c-1.1-0.1-2.3-0.1-3.5-0.1c-0.1,0.7-0.1,1.6-0.1,2.7h-2l0.2-2.7h-3l-0.2,2.5h-2c0.2-1.2,0.3-2.1,0.3-2.5
	c-1.2,0-2.4,0-3.8,0.1l0.1-2C125.5,111.6,126.8,111.7,128.2,111.7z M129.7,116.8c-0.5,0.6-0.8,1.1-1,1.4h8c-0.2,1.3-0.3,2.6-0.4,3.9
	l-0.6,7.6c-0.1,1.4-0.5,2.3-1.3,2.9c-0.7,0.5-2,0.8-3.8,1c0.1-0.7-0.2-1.6-0.8-2.5c1.5,0.1,2.5,0.1,3-0.2c0.5-0.3,0.8-0.8,0.8-1.5
	l0.7-9.2h-6.9c-0.5,0.7-1,1.3-1.6,2h6.3c-0.2,1.3-0.3,2.7-0.4,4.1c-0.1,1.4-0.2,2.8-0.2,4.2h-2l0.1-1.7H127l-0.2,2.6h-2.1
	c0.2-1.5,0.3-2.9,0.4-4.3l0.3-4.3c-0.3,0.4-0.6,0.8-1,1.2c-0.7-0.7-1.2-1.2-1.5-1.4c0.9-0.7,1.7-1.7,2.5-2.9
	c0.8-1.2,1.4-2.4,1.8-3.7C128.2,116.4,129,116.7,129.7,116.8z M138.1,119c-0.4-0.4-1-0.9-1.9-1.3c1.4-1.5,2.5-3.1,3.3-4.9
	c0.8-1.8,1.4-3.4,1.7-4.9c0.7,0.3,1.5,0.6,2.5,0.9c-0.2,0.2-0.5,0.6-0.7,1.2c-0.3,0.5-0.7,1.5-1.3,2.8h5.7c0.6,0,1.3,0,2.1-0.1
	l-0.2,2.2c-1-0.1-1.7-0.1-2-0.1c-0.4,2.5-0.9,4.8-1.6,7c-0.6,2.2-1.3,4-2,5.4c0.4,0.7,1,1.4,1.9,2.3c0.8,0.9,1.8,1.5,3,2
	c-0.6,0.6-1.1,1.3-1.5,2.2c-1.4-0.9-2.4-1.7-3.1-2.5c-0.7-0.8-1.2-1.5-1.5-2c-0.6,0.7-1.3,1.4-1.9,2c-0.6,0.6-1.9,1.6-3.7,2.9
	c-0.4-1-0.9-1.8-1.4-2.2c1.1-0.4,2.2-1.1,3.2-2c1-0.9,1.9-1.8,2.6-2.8c-0.8-1.9-1.4-3.5-1.7-4.9c-0.3-1.4-0.6-2.8-0.9-4.2
	C138.6,118.3,138.4,118.7,138.1,119z"/>
<path class="st0" d="M405.5,129.9l1-12.9h2l-0.1,1.8c1-1.4,2.5-2.1,4.2-2.1c0.8,0,1.5,0.1,2.1,0.4c0.6,0.3,1.1,0.6,1.4,1.1
	c0.3,0.5,0.5,1,0.6,1.6c0,0.4,0,1.1,0,2.1l-0.6,7.9h-2.2l0.6-7.8c0.1-0.9,0-1.6-0.1-2c-0.1-0.4-0.4-0.8-0.8-1.1
	c-0.4-0.3-0.9-0.4-1.5-0.4c-0.9,0-1.7,0.3-2.5,0.9c-0.7,0.6-1.1,1.7-1.3,3.3l-0.5,7H405.5z M401.8,125.2l2.1,0.3
	c-0.3,1.5-1,2.6-2,3.4c-1,0.8-2.2,1.2-3.6,1.2c-1.8,0-3.1-0.6-4.1-1.7c-1-1.1-1.4-2.8-1.2-4.9c0.1-1.4,0.4-2.6,1-3.6
	c0.5-1,1.3-1.8,2.3-2.3c1-0.5,2-0.8,3.1-0.8c1.4,0,2.5,0.4,3.3,1.1c0.8,0.7,1.3,1.7,1.5,3l-2.1,0.3c-0.1-0.9-0.4-1.5-0.9-1.9
	c-0.5-0.4-1.1-0.7-1.8-0.7c-1.1,0-2,0.4-2.8,1.2c-0.7,0.8-1.2,2-1.3,3.7c-0.1,1.7,0.1,3,0.7,3.8c0.6,0.8,1.4,1.2,2.5,1.2
	c0.9,0,1.6-0.3,2.2-0.8C401.2,127.1,401.6,126.3,401.8,125.2z M386.8,129.9l0.2-2.5h2.5l-0.2,2.5H386.8z M372.4,129.9l1-12.9h2
	l-0.1,1.8c1-1.4,2.5-2.1,4.2-2.1c0.8,0,1.5,0.1,2.1,0.4c0.6,0.3,1.1,0.6,1.4,1.1c0.3,0.5,0.5,1,0.6,1.6c0,0.4,0,1.1,0,2.1l-0.6,7.9
	h-2.2l0.6-7.8c0.1-0.9,0-1.6-0.1-2c-0.1-0.4-0.4-0.8-0.8-1.1c-0.4-0.3-0.9-0.4-1.5-0.4c-0.9,0-1.7,0.3-2.5,0.9
	c-0.7,0.6-1.1,1.7-1.3,3.3l-0.5,7H372.4z M368.7,125.2l2.1,0.3c-0.3,1.5-1,2.6-2,3.4c-1,0.8-2.2,1.2-3.6,1.2c-1.8,0-3.1-0.6-4.1-1.7
	c-1-1.1-1.4-2.8-1.2-4.9c0.1-1.4,0.4-2.6,1-3.6c0.5-1,1.3-1.8,2.3-2.3c1-0.5,2-0.8,3.1-0.8c1.4,0,2.5,0.4,3.3,1.1
	c0.8,0.7,1.3,1.7,1.5,3l-2.1,0.3c-0.1-0.9-0.4-1.5-0.9-1.9c-0.5-0.4-1.1-0.7-1.8-0.7c-1.1,0-2,0.4-2.8,1.2c-0.7,0.8-1.2,2-1.3,3.7
	c-0.1,1.7,0.1,3,0.7,3.8c0.6,0.8,1.4,1.2,2.5,1.2c0.9,0,1.6-0.3,2.2-0.8C368.1,127.1,368.5,126.3,368.7,125.2z M348.1,123.5
	c-0.1,1.6,0.1,2.9,0.8,3.7c0.6,0.8,1.4,1.2,2.4,1.2c1,0,1.8-0.4,2.5-1.2c0.7-0.8,1.1-2,1.3-3.6c0.1-1.8-0.1-3-0.7-3.9
	c-0.6-0.8-1.4-1.2-2.4-1.2c-1,0-1.8,0.4-2.5,1.2C348.6,120.6,348.2,121.8,348.1,123.5z M354.5,129.9l0.1-1.6
	c-0.9,1.3-2.2,1.9-3.7,1.9c-1,0-1.9-0.3-2.8-0.8c-0.8-0.6-1.4-1.4-1.8-2.4c-0.4-1-0.5-2.2-0.4-3.5c0.1-1.3,0.4-2.4,0.9-3.5
	c0.5-1,1.2-1.8,2.1-2.4c0.9-0.6,1.9-0.8,2.9-0.8c0.8,0,1.5,0.2,2,0.5c0.6,0.3,1,0.8,1.4,1.3l0.5-6.4h2.2l-1.3,17.7H354.5z
	 M334.6,122.3h7.2c0-1.1-0.2-1.9-0.6-2.4c-0.6-0.8-1.5-1.3-2.6-1.3c-1,0-1.9,0.3-2.6,1C335.2,120.3,334.8,121.1,334.6,122.3z
	 M341.5,125.8l2.2,0.3c-0.4,1.3-1.2,2.3-2.2,3.1c-1,0.7-2.3,1.1-3.8,1.1c-1.9,0-3.3-0.6-4.3-1.7c-1-1.2-1.4-2.8-1.3-4.9
	c0.2-2.2,0.8-3.8,2-5c1.2-1.2,2.7-1.8,4.5-1.8c1.7,0,3.1,0.6,4.1,1.8c1,1.2,1.4,2.8,1.3,4.9c0,0.1,0,0.3-0.1,0.6h-9.6
	c0,1.4,0.3,2.5,1,3.2c0.7,0.7,1.5,1.1,2.6,1.1c0.8,0,1.5-0.2,2.1-0.6C340.6,127.4,341.1,126.7,341.5,125.8z M311.8,129.9l1-12.9h2
	l-0.1,1.8c0.4-0.6,1-1.1,1.7-1.5c0.7-0.4,1.5-0.6,2.3-0.6c0.9,0,1.7,0.2,2.3,0.6c0.6,0.4,1,0.9,1.2,1.7c1.1-1.5,2.5-2.2,4.2-2.2
	c1.3,0,2.2,0.4,2.9,1.1c0.6,0.7,0.9,1.8,0.8,3.3l-0.7,8.8H327l0.6-8.1c0.1-0.9,0-1.5-0.1-1.9c-0.1-0.4-0.3-0.7-0.7-0.9
	c-0.4-0.2-0.8-0.4-1.3-0.4c-0.9,0-1.7,0.3-2.3,0.9c-0.6,0.6-1,1.6-1.1,2.9l-0.6,7.5h-2.2l0.6-8.3c0.1-1-0.1-1.7-0.4-2.2
	c-0.3-0.5-0.9-0.7-1.7-0.7c-0.6,0-1.2,0.2-1.7,0.5c-0.5,0.3-1,0.8-1.2,1.4c-0.3,0.6-0.5,1.5-0.5,2.7l-0.5,6.7H311.8z M305.5,129.9
	l0.2-2.5h2.5l-0.2,2.5H305.5z M290.7,129.9l-2.9-12.9h2.3l1.5,7.4l0.5,2.8c0-0.1,0.3-1,0.9-2.7l2.6-7.5h2.2l1.4,7.5l0.4,2.4l0.9-2.5
	l2.8-7.4h2.1l-5,12.9h-2.3l-1.5-7.7l-0.4-2.2l-3.3,9.9H290.7z M272.8,129.9l-2.9-12.9h2.3l1.5,7.4l0.5,2.8c0-0.1,0.3-1,0.9-2.7
	l2.6-7.5h2.2l1.4,7.5l0.4,2.4l0.9-2.5l2.8-7.4h2.1l-5,12.9h-2.3l-1.5-7.7l-0.4-2.2l-3.3,9.9H272.8z M254.9,129.9l-2.9-12.9h2.3
	l1.5,7.4l0.5,2.8c0-0.1,0.3-1,0.9-2.7l2.6-7.5h2.2l1.4,7.5l0.4,2.4l0.9-2.5l2.8-7.4h2.1l-5,12.9h-2.3l-1.5-7.7l-0.4-2.2l-3.3,9.9
	H254.9z M256.1,108.3h158.1c3.9,0,6.9,3.2,6.6,7.1l-0.8,11.7c-0.3,3.9-3.7,7.1-7.6,7.1H254.3c-3.9,0-6.9-3.2-6.6-7.1l0.8-11.7
	C248.8,111.4,252.2,108.3,256.1,108.3z"/>
<path class="st0" d="M246.7,69.2c1.9,0,3.5,1.6,3.5,3.5c0,1.9-1.6,3.5-3.5,3.5c-1.9,0-3.5-1.6-3.5-3.5
	C243.2,70.7,244.8,69.2,246.7,69.2"/>
<g>
	<path class="st1" d="M275.2,71.8l3,0.4l-1.4,3.6h12.5v2.7c-1.4,4.1-3.8,7.6-7,10.6c2.9,1.2,5.8,2.7,8.8,4.3l-1.8,2.5
		c-2.7-1.6-5.9-3.2-9.6-4.8c-3.9,2.9-8.9,5.1-14.7,6.8l-1.6-2.7c5.2-1.4,9.5-3.3,13.1-5.6c-2.5-1.1-5.3-2.2-8.5-3.4
		c1.6-2.7,3-5.2,4.2-7.6h-7.4v-2.9h8.8L275.2,71.8z M265.1,56.1h11.6V44.6h3v11.4h11.1v2.9h-11.1v0.7c3.6,2,7,4.1,10.1,6.2l-1.7,2.5
		c-3.2-2.6-6-4.7-8.4-6.3v8.4h-3V58.9h-0.2c-1.9,4.7-5.5,8.8-10.8,12.3l-1.6-2.6c5-2.8,8.3-6,10.1-9.7h-9V56.1z M269,46
		c1.5,2.3,2.8,4.7,3.8,7.3l-2.5,1.1c-1.2-2.7-2.5-5.2-4-7.6L269,46z M286.4,78.6h-10.8c-1,2.1-2.1,4.2-3.5,6.3
		c2.5,0.8,4.9,1.8,7.2,2.8C282.4,85.1,284.8,82.1,286.4,78.6z M290,46.7c-1.1,2.7-2.7,5.3-4.6,7.8l-2.4-1.2c1.9-2.7,3.3-5.3,4.3-7.8
		L290,46.7z M296.7,65.4c-1.1,3-2.4,5.8-3.9,8.4l-2-2.5c3.6-6.6,6-15.6,7.3-27l3.2,0.6c-0.4,3-0.9,6-1.4,8.9h15.9V57h-4.2
		c-0.2,10.1-2,18.7-5.3,25.7c3.1,5.4,6.9,9.6,11.2,12.5l-1.8,2.7c-4.3-3-7.9-7.1-11-12.3c-3,5.1-6.7,9.2-11.2,12.4l-1.8-2.7
		c4.7-3.4,8.5-7.6,11.2-12.8C300.5,77.7,298.4,72,296.7,65.4z M299.2,57c-0.4,1.6-0.7,2.7-0.9,3.5c1.6,7.2,3.7,13.5,6.3,18.8
		c2.6-6.4,4-13.9,4.1-22.3H299.2z"/>
	<path class="st1" d="M333.3,61.1h31.1V64c-4,2.9-8.4,5.5-13.2,8v4.8h23.5v3h-23.5v13.5c0,2.9-1.5,4.4-4.5,4.4h-7.2l-0.8-3
		c2.8,0.1,5.1,0.1,6.9,0.1c1.7,0,2.5-0.9,2.5-2.6V79.9h-24.9v-3h24.9v-6.2c5.2-2.7,9.1-4.9,11.6-6.6h-26.4V61.1z M373.5,50.9v12.5
		h-3.2V54h-42.8v9.5h-3.2V50.9h23.6c-0.7-2.3-1.6-4.4-2.6-6.2l3.5-0.6c0.8,1.8,1.7,4,2.6,6.7H373.5z"/>
	<path class="st1" d="M384.1,47.5h47.1v3.2h-22.3v23.2h24.4v3.1h-24.4V98h-3.2V76.9h-24v-3.1h24V50.6h-21.6V47.5z M390.4,55.1
		c2.3,4.2,4.5,8.7,6.4,13.5l-3,1.5c-1.9-4.8-4-9.3-6.4-13.6L390.4,55.1z M427.8,56.1c-1.8,4.7-4.3,9.3-7.3,13.9l-2.9-1.5
		c3-4.6,5.5-9.2,7.2-13.8L427.8,56.1z"/>
	<path class="st1" d="M441.9,64.5c5.7-2.3,12.2-9,19.6-20l3.2,1.1c-5.7,8.3-11.4,14.6-16.9,18.8c12.7-0.5,24.2-1.3,34.4-2.3
		c-2.6-3.5-5.2-6.7-7.7-9.7l2.9-1.4c5.4,6.3,10.2,12.7,14.5,19.5l-3,1.5c-1.1-1.9-2.7-4.2-4.6-7.1c-12.4,1.2-26.3,2.1-41.7,2.6
		L441.9,64.5z M485.4,74.1v24h-3.2v-3.3h-32.1v3.3h-3.2v-24H485.4z M450.1,91.7h32.1V77.1h-32.1V91.7z"/>
</g>
<g>
	<defs>
		<rect id="SVGID_1_" x="98.9" width="138.7" height="133.1"/>
	</defs>
	<clipPath id="SVGID_2_">
		<use xlink:href="#SVGID_1_"  style="overflow:visible;"/>
	</clipPath>
	<path class="st2" d="M382.7,60.8l0.2-2.5h28.2l-0.2,2.5H382.7z M379.5,70.7l0.2-2.2h33.1l-0.2,2.2h-10.1l-0.9,12.2
		c-0.3,2.6,0.5,3.8,2.7,3.6h1.6c2.3,0,3.4-1.1,3.4-3.2l0.2-2h2.5l-0.1,1.8c-0.1,3.9-2,5.8-5.6,5.6h-2.5c-3.9,0-5.7-2-5.4-5.9
		l0.9-12.2h-7.4c-0.3,9.3-4.8,15.8-13.7,19.4l0.2-2.3c6.3-3.4,9.6-9.2,10.1-17.1H379.5z M417.2,51.8h-39.5l-3.3,42.8h34
		c3.7,0.2,5.7-1.4,5.8-4.7L417.2,51.8z M370.9,97.1l3.6-47.5h46.2l-3.1,40.3c-0.2,5-3.1,7.4-8.7,7.2H370.9z M350.4,46.9h3.6
		l-0.4,4.7h14.6l-0.2,2.2h-14.6l-0.4,5h-3.6l0.4-5h-14.7l-0.4,5h-3.4l0.4-5h-15.1l0.2-2.2H332l0.4-4.7h3.4l-0.4,4.7h14.7L350.4,46.9
		z M326.4,63.3l-0.5,6.3h31l0.5-6.3H326.4z M356.6,74.6l0.2-2.7h-31l-0.5,6.7h27C354.9,78.6,356.4,77.3,356.6,74.6z M321.7,80.9
		l1.5-19.8h38l-1,13.1c-0.3,4.5-2.9,6.8-7.5,6.8h-10.4l-0.5,6.5h23.9l-0.2,2.2h-23.9l-0.7,9h-3.6l0.7-9h-24.3l0.2-2.2h24.3l0.5-6.5
		H321.7z M291.9,87.2c-0.4-4.1-1.7-8.3-3.7-12.8h2.9c2.2,4.5,3.7,8.8,4.4,12.8H291.9z M280.1,93.1c-6.3,1.4-13.4,2-21.3,2l0.2-2.5
		c7.2,0.3,14.3-0.3,21.3-1.8L280.1,93.1z M279.9,84c-5.5,0.9-11.6,1.4-18.4,1.4l0.2-2.7c4-3,7.5-6.2,10.4-9.5c-0.2,0-0.5,0-0.9,0
		c-3.5,0.3-6.7,0.4-9.7,0.2l0.2-2.5c4.4-4.2,7.4-8.3,9-12.2h3.8c-2.9,5.1-6.1,9.2-9.5,12.2c3.3,0,6.3-0.2,9-0.5
		c0.8-0.9,1.9-2.2,3.2-4.1c0.2-0.5,0.4-0.7,0.5-0.9h3.6c-4.3,6.6-9.6,12.3-16.2,17.1c6.3,0,11.2-0.3,14.7-0.9L279.9,84z M276.9,58.8
		l0.4-4.7h-15.5l0.2-2.7h15.5l0.4-4.7h3.6l-0.4,4.7h14l0.4-4.7h3.4l-0.4,4.7h15.1l-0.2,2.7h-15.1l-0.4,4.7h-3.4l0.4-4.7h-14
		l-0.4,4.7H276.9z M280.7,74.6c5.1-3.9,8.1-8.9,9-15.1h3.4c-0.3,1.7-0.7,3.2-1.2,4.5h18l-2,26.1c-0.2,5.1-2.7,7.5-7.3,7.2h-6.1
		l0.2-2.2h5.4c2.8,0.1,4.3-1.1,4.3-3.8l1.9-24.8H291c-1.8,4.1-5.3,7.6-10.5,10.6L280.7,74.6z M196.1,72.8l0.2-2.2h30.9l-0.2,2.2
		H196.1z M196.8,63.5l0.2-2.2h30.9l-0.2,2.2H196.8z M194.6,54.5l0.2-2.2h16.7l0.4-5.2h3.6l-0.4,5.2h16.9l-0.2,2.2H194.6z
		 M182.4,98.7l2.7-35.6c-1.9,1.8-4.3,3.4-7.1,4.9l0.2-2.5c6.6-4.5,11-10.7,12.9-18.7h3.8c-1.6,5.1-3.6,9.2-6.1,12.2l-3,39.6H182.4z
		 M221.7,91.9l0.8-9.9h-23l-1,12.8h19.6C220.3,94.8,221.5,93.9,221.7,91.9z M195,97.1l1.3-17.3H226l-0.9,11.7
		c-0.2,3.9-2.3,5.8-6.5,5.6H195z M137.5,84l0.7-9.2h-8.3l-1,12.6h5.2C136.4,87.6,137.5,86.4,137.5,84z M132.7,58.6l0.3-4.5h-7.7
		l0.2-2.5h7.7l0.3-4.5h3.2l-0.3,4.5h8.6l0.3-4.5h3.2l-0.3,4.5h7.2l-0.2,2.5h-7.2l-0.3,4.5h-3.2l0.3-4.5h-8.6l-0.3,4.5H132.7z
		 M162.7,82.5c3.8-6,6.1-14.2,7.1-24.5h-9.7c0,0.2-0.1,0.3-0.3,0.5c-1,1.4-1.9,2.3-2.7,2.9h1.8C158.8,69.7,160.1,76.8,162.7,82.5z
		 M123,74.2l0.2-2.5c4.3-3.2,7.2-7,8.8-11.5h3.4c-0.2,0.3-0.4,0.7-0.6,1.3c-0.3,0.6-0.6,1.1-0.8,1.4h16.4l-2.2,28.6
		c-0.2,4.4-2.8,6.5-7.9,6.3h-3.8l0.2-2.5h3.6c3.1,0.2,4.7-1,4.8-3.6l2-26.3h-14.4C130.9,68.5,127.7,71.5,123,74.2z M125.6,89.7
		l1.3-17.1h14.4L140.5,84c-0.1,3.9-2.1,5.8-5.8,5.6H125.6z M151.8,65.6l0.2-2.7c5.1-4.5,8.3-9.9,9.6-16.2h3.6
		c-1.2,3.6-2.4,6.6-3.6,9h15.3l-0.2,2.2h-3.6c-1.2,12-4.2,21.2-8.9,27.5c2.4,4,5.6,7.6,9.5,10.6l-0.2,2.5
		c-5.3-3.6-9.1-7.2-11.3-10.8c-3.1,3.6-7.6,7.2-13.4,10.8L149,96c5.2-3.8,9.1-7.4,11.6-10.8c-3-5.7-4.7-13.1-5-22.3
		C154.5,63.8,153.2,64.7,151.8,65.6z"/>
</g>
</svg>
